<?xml version="1.0" encoding="utf-8"?>
<!-- Generator: Adobe Illustrator 26.0.3, SVG Export Plug-In . SVG Version: 6.00 Build 0)  -->
<svg version="1.1" xmlns="http://www.w3.org/2000/svg" xmlns:xlink="http://www.w3.org/1999/xlink" x="0px" y="0px"
	 viewBox="0 0 475.2 141.1" style="enable-background:new 0 0 475.2 141.1;" xml:space="preserve">
<style type="text/css">
	.st0{fill:#FFFFFF;}
	.st1{opacity:0.4;}
	.st2{opacity:0.7;}
</style>
<g id="generic">
</g>
<g id="XERMELO">
	<path class="st0" d="M467.8,43.5c0,3.4-2.7,6-6,6c-3.2,0-6-2.7-6-6c0-3.4,2.8-6,6-6C465.1,37.5,467.8,40.1,467.8,43.5 M456.5,43.5
		c0,3,2.4,5.3,5.3,5.3c2.9,0,5.3-2.4,5.3-5.3c0-2.8-2.3-5.3-5.3-5.3C458.9,38.2,456.5,40.6,456.5,43.5 M459.6,40.2h2.3
		c0.5,0,2.2,0,2.2,1.6c0,0.2,0,1.2-1.2,1.6c0.7,0.2,0.9,0.4,1,1.2c0.1,0.8,0.2,1.4,0.4,2h-0.9c-0.1-0.4-0.2-0.7-0.3-1.7
		c-0.1-1-0.4-1.2-1.4-1.2h-1.1v2.9h-0.9V40.2z M460.5,43h1.4c0.4,0,1.3,0,1.3-1c0-1-0.8-1-1.3-1h-1.4V43z"/>
</g>
<g id="icon">
	<g>
		<g>
			<path class="st0" d="M89.5,95.5c-1.4,5.5-2.6,11.2-2.6,16.9c0,5.8,1,11.6,2.6,17.2h-1.9c-1.7-5.4-3.2-10.9-3.2-16.6
				c0-6,1.4-11.9,3.4-17.5H89.5z"/>
			<path class="st0" d="M90.2,106.7v-1.9h3.2v-4.1l2.3-1v5.1h4v1.9h-4v12.6c0,2.6,0.3,3.2,2.1,3.2c0.8,0,1.3,0,1.8-0.1v2
				c-0.7,0.1-1.5,0.1-2.2,0.1c-3.2,0-4.1-1.4-4.1-3.8v-14.1H90.2z"/>
			<path class="st0" d="M102.8,115.1v1.5c0,2.7,0.7,6.4,4.4,6.4c2.9,0,4.4-1.9,4.3-4.5h2.5c-0.3,4.8-2.8,6.4-6.8,6.4
				c-3.4,0-6.8-1.4-6.8-7.3v-4.8c0-5.7,2.4-8.3,6.8-8.3c6.8,0,6.8,4.9,6.8,10.7H102.8z M111.7,113.3c0-4.4-0.7-7-4.4-7
				c-3.7,0-4.4,2.6-4.4,7H111.7z"/>
			<path class="st0" d="M116.7,124.5V96.3h2.3v28.2H116.7z"/>
			<path class="st0" d="M121.6,116.8v-4.3c0-5.1,2.2-8.1,6.8-8.1c4.6,0,6.8,3,6.8,8.1v4.3c0,5.1-2.2,8.1-6.8,8.1
				C123.8,124.9,121.6,121.9,121.6,116.8z M123.9,114.6c0,5.1,0.6,8.4,4.4,8.4c3.9,0,4.4-3.2,4.4-8.4c0-5.1-0.6-8.3-4.4-8.3
				C124.5,106.3,123.9,109.5,123.9,114.6z"/>
			<path class="st0" d="M135.7,106.7v-1.9h3.2v-4.1l2.3-1v5.1h4v1.9h-4v12.6c0,2.6,0.3,3.2,2.1,3.2c0.8,0,1.3,0,1.8-0.1v2
				c-0.7,0.1-1.5,0.1-2.2,0.1c-3.2,0-4.1-1.4-4.1-3.8v-14.1H135.7z"/>
			<path class="st0" d="M149.1,107.4L149.1,107.4c1.1-1.9,3.1-3,5.5-3v2.4c-3.3-0.3-5.5,1.7-5.5,5v12.7h-2.3v-19.7h2.3V107.4z"/>
			<path class="st0" d="M156.1,99.3v-3h2.9v3H156.1z M156.4,124.5v-19.7h2.3v19.7H156.4z"/>
			<path class="st0" d="M167,124.9c-4.3,0-5.9-2.1-5.9-6.2h2.4c0,2.7,0.6,4.5,3.6,4.5c2.3,0,3.4-1.3,3.4-3.5c0-5.1-8.9-3.8-8.9-10.3
				c0-3.6,2.5-4.9,5.9-4.9c3.9,0,5.1,2.7,5.1,5.7h-2.3c-0.1-2.5-0.8-3.8-3.4-3.8c-1.7,0-3,1.1-3,2.8c0,4.9,8.9,3.6,8.9,10.2
				C172.8,123,170.6,124.9,167,124.9z"/>
			<path class="st0" d="M173.6,106.7v-1.9h3.2v-4.1l2.3-1v5.1h4v1.9h-4v12.6c0,2.6,0.3,3.2,2.1,3.2c0.8,0,1.3,0,1.8-0.1v2
				c-0.7,0.1-1.5,0.1-2.2,0.1c-3.2,0-4.1-1.4-4.1-3.8v-14.1H173.6z"/>
			<path class="st0" d="M195,122.1L195,122.1c-1.3,1.9-3.2,2.8-5.7,2.8c-3.5,0-5.4-2.4-5.4-5.8c0-6.9,6.9-6.2,10.9-6.5v-1.6
				c0-2.9-0.9-4.6-4-4.6c-2.1,0-3.9,1.1-3.9,3.4h-2.5c0.2-3.8,3.1-5.3,6.6-5.3c2,0,6.1,0.2,6.1,5.2v9.9c0,1.4,0,2.7,0.2,5H195V122.1
				z M194.8,114.4c-3.4,0.1-8.4-0.3-8.4,4.5c0,2.2,1.1,4.1,3.5,4.1c2.7,0,4.9-2.4,4.9-5V114.4z"/>
			<path class="st0" d="M198.5,106.7v-1.9h3.2v-4.1l2.3-1v5.1h4v1.9h-4v12.6c0,2.6,0.3,3.2,2.1,3.2c0.8,0,1.3,0,1.8-0.1v2
				c-0.7,0.1-1.5,0.1-2.2,0.1c-3.2,0-4.1-1.4-4.1-3.8v-14.1H198.5z"/>
			<path class="st0" d="M218.5,115.1v1.5c0,2.7,0.7,6.4,4.4,6.4c2.9,0,4.4-1.9,4.3-4.5h2.5c-0.3,4.8-2.8,6.4-6.8,6.4
				c-3.4,0-6.8-1.4-6.8-7.3v-4.8c0-5.7,2.4-8.3,6.8-8.3c6.8,0,6.8,4.9,6.8,10.7H218.5z M227.3,113.3c0-4.4-0.7-7-4.4-7
				c-3.7,0-4.4,2.6-4.4,7H227.3z"/>
			<path class="st0" d="M230.3,106.7v-1.9h3.2v-4.1l2.3-1v5.1h4v1.9h-4v12.6c0,2.6,0.3,3.2,2.1,3.2c0.8,0,1.3,0,1.8-0.1v2
				c-0.7,0.1-1.5,0.1-2.2,0.1c-3.2,0-4.1-1.4-4.1-3.8v-14.1H230.3z"/>
			<path class="st0" d="M241.3,124.5V96.3h2.3v10.9h0.1c1.1-1.6,2.7-2.8,4.8-2.8c4.9,0,5.4,3.6,5.4,6.2v13.9h-2.3v-13.8
				c0-2.3-0.9-4.4-3.6-4.4c-2.1,0-4.3,1.4-4.3,5.9v12.4H241.3z"/>
			<path class="st0" d="M261,124.5l-6.2-19.7h2.5l4.8,16.1h0.1l4.6-16.1h2.3l-8.2,27.1h-2.3L261,124.5z"/>
			<path class="st0" d="M270.9,124.5V96.3h2.3v28.2H270.9z"/>
			<path class="st0" d="M277.7,95.5c2,5.7,3.4,11.5,3.4,17.5c0,5.7-1.5,11.2-3.2,16.6h-1.9c1.6-5.6,2.6-11.4,2.6-17.2
				c0-5.7-1.2-11.4-2.6-16.9H277.7z"/>
			<path class="st0" d="M286.5,112.1v-1.3h2.2V108l1.6-0.7v3.5h2.8v1.3h-2.8v8.7c0,1.8,0.2,2.2,1.5,2.2c0.5,0,0.9,0,1.3-0.1v1.4
				c-0.5,0.1-1,0.1-1.5,0.1c-2.2,0-2.8-1-2.8-2.6v-9.7H286.5z"/>
			<path class="st0" d="M301.5,122.8L301.5,122.8c-0.9,1.3-2.2,1.9-3.9,1.9c-2.4,0-3.8-1.6-3.8-4c0-4.8,4.8-4.3,7.6-4.5v-1.1
				c0-2-0.6-3.2-2.8-3.2c-1.5,0-2.7,0.7-2.7,2.3h-1.7c0.1-2.6,2.2-3.6,4.5-3.6c1.4,0,4.2,0.1,4.2,3.6v6.9c0,1,0,1.8,0.2,3.4h-1.7
				V122.8z M301.3,117.5c-2.3,0.1-5.8-0.2-5.8,3.1c0,1.5,0.8,2.8,2.5,2.8c1.9,0,3.4-1.7,3.4-3.5V117.5z"/>
			<path class="st0" d="M304.8,124.5c0.1-0.5,0.2-0.9,0.2-1.3V105h1.6v7.4l0.1,0.1c0.8-1.3,1.9-1.9,3.5-1.9c4.4,0,4.1,4.6,4.1,7.1
				c0,3-0.2,7.1-4.2,7.1c-1.6,0-2.8-0.6-3.4-1.9h-0.1v1.6H304.8z M309.5,123.5c3,0,3.1-2.6,3.1-5.8c0-3.2-0.1-5.8-3.1-5.8
				c-2.6,0-2.9,3.5-2.9,5.6C306.6,119.6,306.6,123.5,309.5,123.5z"/>
			<path class="st0" d="M316,124.5V105h1.6v19.5H316z"/>
			<path class="st0" d="M321.2,118v1.1c0,1.9,0.5,4.4,3.1,4.4c2,0,3-1.3,3-3.1h1.7c-0.2,3.3-2,4.4-4.7,4.4c-2.3,0-4.7-0.9-4.7-5.1
				v-3.3c0-3.9,1.6-5.8,4.7-5.8c4.7,0,4.7,3.4,4.7,7.4H321.2z M327.3,116.7c0-3-0.5-4.8-3.1-4.8c-2.6,0-3.1,1.8-3.1,4.8H327.3z"/>
			<path class="st0" d="M329.5,112.1v-1.3h2.2V108l1.6-0.7v3.5h2.8v1.3h-2.8v8.7c0,1.8,0.2,2.2,1.5,2.2c0.5,0,0.9,0,1.3-0.1v1.4
				c-0.5,0.1-1,0.1-1.5,0.1c-2.2,0-2.8-1-2.8-2.6v-9.7H329.5z"/>
			<path class="st0" d="M340.9,124.8c-2.9,0-4.1-1.4-4.1-4.3h1.6c0,1.9,0.4,3.1,2.5,3.1c1.6,0,2.3-0.9,2.3-2.4
				c0-3.6-6.1-2.6-6.1-7.2c0-2.5,1.7-3.4,4.1-3.4c2.7,0,3.6,1.9,3.6,3.9h-1.6c-0.1-1.7-0.5-2.6-2.4-2.6c-1.2,0-2.1,0.8-2.1,2
				c0,3.4,6.1,2.5,6.1,7C345,123.5,343.5,124.8,340.9,124.8z"/>
			<path class="st0" d="M347.1,122.4h2l-1.6,4.9H346L347.1,122.4z"/>
			<path class="st0" d="M363,124.5h-9.6V123c4.2-6.5,7.8-10.8,7.8-13.3c0-2.5-1.6-2.8-3.1-2.8c-2.1,0-3.1,1.5-3.1,3.4h-1.6
				c0-3.8,2.5-4.9,4.7-4.9c2.2,0,4.8,0.7,4.8,3.9c0,2.8-1.4,4.3-7.7,13.7h7.7V124.5z"/>
			<path class="st0" d="M374.3,118.6c0,3.1-0.8,6.2-4.8,6.2c-3.2,0-4.9-1.5-4.8-4.8h1.7c-0.1,2.1,0.8,3.3,3,3.3
				c2.8,0,3.1-2.5,3.1-4.7c0-2.3-0.2-4.7-3.2-4.7c-1.2,0-2.7,0.7-2.9,2h-1.6v-10.2h8.7v1.5h-7v6.7c1.1-1,1.8-1.4,3.3-1.4
				C374.4,112.4,374.3,116.3,374.3,118.6z"/>
			<path class="st0" d="M385.3,113v4.1c0,3.5,0,7.7-4.8,7.7c-4.8,0-4.8-4.1-4.8-7.7V113c0-3.5,0-7.7,4.8-7.7
				C385.3,105.4,385.3,109.5,385.3,113z M377.5,118.8c0,4.2,1.9,4.6,3.1,4.6c1.2,0,3.1-0.3,3.1-4.6v-7.4c0-4.2-1.9-4.6-3.1-4.6
				c-1.2,0-3.1,0.3-3.1,4.6V118.8z"/>
			<path class="st0" d="M392.1,124.5h-1.6v-13.7h1.5v1.7h0.1c0.6-1.1,1.7-1.9,3.2-1.9c1.4,0,2.6,0.8,3.1,2.1
				c0.7-1.3,1.8-2.1,3.3-2.1c2.3,0,3.5,1.6,3.5,3.8v10.1h-1.6v-9.7c0-1.3-0.5-2.9-2.1-2.9c-2.1,0-2.8,2.1-2.8,3.8v8.8H397v-9.7
				c0-1.3-0.5-2.9-2.1-2.9c-2.1,0-2.8,2.1-2.8,3.8V124.5z"/>
			<path class="st0" d="M414.4,110.8h1.6c-0.1,1.3-0.1,2-0.1,2.7V125c0,3-0.9,4.8-4.8,4.8c-3.4,0-4.1-2.4-4-3.8h1.6
				c-0.1,1.6,1.1,2.5,2.6,2.5c3.2,0,3-1.7,3-5.8h-0.1c-0.7,1.2-2,1.6-3.3,1.6c-3.9,0-4.2-3.4-4.2-6.4c0-3.2,0-3.2,0.4-4.6
				c0.1-0.6,1.1-2.7,3.8-2.7c1.4,0,2.8,0.7,3.3,1.9l0.1,0.1V110.8z M408.4,117.4c0,2.8,0,5.7,2.9,5.7c1.3,0,2.2-0.9,2.5-1.5
				c0.4-1.1,0.5-1.7,0.5-5.7c0-2.9-1.5-3.9-3.1-3.9C408.4,111.9,408.4,115.3,408.4,117.4z"/>
		</g>
		<g>
			<g>
				<path class="st0" d="M140.9,89.7h-15.3l-8.2-15.2l-14,15.2H88.9l22.8-25.8L98.5,38.5h15.2l8,14.4l13.6-14.4h14.6l-22.4,24.8
					L140.9,89.7z"/>
				<path class="st0" d="M183.8,89.7h-37l9.3-51.1h37l-4.7,9.9h-20.9l-1.9,10.4H183l-1.8,9.9h-17.5l-2,11.1h23.9L183.8,89.7z"/>
				<path class="st0" d="M240.8,89.7h-16.1l-8.2-17.2h-7.7l-3.1,17.2h-13.1l9.3-51.1h22.1c3,0,5.6,0.2,7.7,0.5
					c2.1,0.3,4,1.1,5.7,2.2c1.7,1.1,3,2.6,3.8,4.5c0.8,1.8,1,4.1,0.5,6.8c-0.7,3.8-2.1,6.9-4.3,9.2c-2.2,2.4-5,4.4-8.6,5.9
					L240.8,89.7z M227.6,54.2c0.2-1.3,0.2-2.4-0.2-3.3c-0.4-0.9-1.1-1.6-2.3-2.2c-0.8-0.4-1.8-0.6-3-0.7c-1.2-0.1-2.6-0.1-4.1-0.1
					h-4.8l-2.5,13.8h4c2.1,0,3.9-0.1,5.3-0.3c1.5-0.2,2.7-0.7,3.8-1.4c1-0.7,1.9-1.5,2.4-2.4C226.9,56.8,227.4,55.7,227.6,54.2z"/>
				<path class="st0" d="M299.7,89.7h-13.1l6.2-34.2l-14.5,22.2h-7.1l-6.4-22.2l-6.2,34.2h-12.4l9.3-51.1h15.3l7.1,24.1l15.9-24.1
					H309L299.7,89.7z"/>
				<path class="st0" d="M346.4,89.7h-37l9.3-51.1h37l-5.7,9.9H330l-1.9,10.4h17.5l-1.8,9.9h-17.5l-2,11.1h23.9L346.4,89.7z"/>
				<path class="st0" d="M392.9,89.7H356l9.3-51.1h13.2L371,79.8h23.7L392.9,89.7z"/>
				<path class="st0" d="M451.8,64.1c-1.5,8.1-5,14.6-10.6,19.4c-5.5,4.8-12.4,7.2-20.7,7.2c-8.2,0-14.2-2.4-18-7.2
					c-3.8-4.8-5-11.3-3.5-19.4c1.5-8.2,5-14.7,10.5-19.5c5.5-4.8,12.4-7.2,20.6-7.2c8.2,0,14.2,2.4,18,7.2
					C452.1,49.4,453.3,55.9,451.8,64.1z M432,77.1c1.6-1.6,2.9-3.4,3.9-5.5c1-2.1,1.8-4.6,2.3-7.5c0.6-3.1,0.7-5.7,0.4-7.8
					c-0.3-2.2-0.9-3.9-1.8-5.2c-0.9-1.4-2.1-2.4-3.5-3c-1.4-0.6-2.9-0.9-4.6-0.9c-1.7,0-3.3,0.3-4.9,0.9c-1.6,0.6-3.1,1.6-4.6,3
					c-1.4,1.3-2.6,3-3.8,5.3c-1.1,2.3-2,4.9-2.5,7.8c-0.6,3-0.7,5.6-0.4,7.8c0.3,2.1,0.9,3.9,1.8,5.2c0.9,1.4,2.1,2.4,3.5,3
					c1.4,0.6,3,1,4.7,1c1.7,0,3.4-0.3,5-1C429,79.5,430.6,78.4,432,77.1z"/>
			</g>
		</g>
		<path class="st0" d="M467.1,43.5c0,3.4-2.7,6-6,6c-3.2,0-6-2.7-6-6c0-3.4,2.8-6,6-6C464.4,37.5,467.1,40.2,467.1,43.5 M455.8,43.5
			c0,3,2.4,5.3,5.3,5.3c2.9,0,5.3-2.4,5.3-5.3c0-2.8-2.3-5.3-5.3-5.3C458.2,38.2,455.8,40.6,455.8,43.5 M458.9,40.2h2.3
			c0.5,0,2.2,0,2.2,1.6c0,0.2,0,1.2-1.2,1.6c0.7,0.2,0.9,0.4,1,1.2c0.1,0.8,0.2,1.4,0.4,2h-0.9c-0.1-0.4-0.2-0.7-0.3-1.7
			c-0.1-1-0.4-1.2-1.4-1.2h-1.1v2.9h-0.9V40.2z M459.8,43h1.4c0.4,0,1.3,0,1.3-1c0-1-0.8-1-1.3-1h-1.4V43z"/>
		<g class="st1">
			<polyline class="st0" points="12.4,32.9 31.1,59.2 31.8,59.4 31.2,59.3 54.3,60.3 35.5,34 12.4,32.9 			"/>
			<polyline class="st0" points="8.1,84.6 26.8,110.9 27.5,111 26.9,110.9 50,111.9 31.2,85.6 8.1,84.6 			"/>
		</g>
		<polygon class="st0" points="32.3,85.3 50.8,111.6 74.1,87.1 55.5,60.9 		"/>
		<polygon class="st0" points="78.4,35.5 59.7,9.2 36.6,33.7 55.2,59.9 		"/>
		<g class="st2">
			<polygon class="st0" points="75.1,85.9 97.8,62.2 79.6,36.3 56.8,60.2 			"/>
		</g>
	</g>
</g>
</svg>
