<?xml version="1.0" encoding="UTF-8"?>
<svg id="a" data-name="Layer 1" xmlns="http://www.w3.org/2000/svg" width="14.162in" height="9.31in" xmlns:xlink="http://www.w3.org/1999/xlink" viewBox="0 0 1019.637 670.324">
  <defs>
    <clipPath id="b">
      <path d="M418.054-688.288l-.008,.099-.104-.005,.113-.094Zm115.553,75.845l-.371-7.855-2.608-10.101-1.492-23.567-3.723-4.114,.744-17.207-1.49-7.669-106.622-5.232-11.745,139.059,93.036,4.396,3.352,3.742h6.705l2.608,4.489,2.608,.747,4.47-2.992h4.843l11.175,9.727,.373-3.741-2.979-3.74,3.354-8.23-2.982-10.474h3.724l-.465-41.429-6.987-5.893-.092-3.086,4.283-3.085,.094-3.741m-229.457,194.397l-19.361,132.158,.025-.031,18.02,1.171,.372-9.354,32.037,3.368v-5.238l69.287,6.736,10.151-117.836-110.433-11.238-.1,.264Z" fill="none"/>
    </clipPath>
  </defs>
  <path d="M1017.166,83.331l1.452-3.652-2.371-3.248-6.931-.184-.744-7.193-6.825-.781-9.092-29.906-.048-.157-.131-.098c-7.206-5.427-7.564-5.517-7.681-5.546-.384-.097-3.632-.498-4.28-.577l-.457-.056-.872,4.092-4.853,1.124-.708,2.483-3.157-.576,1.118-4.877-4.232-.946-3.589,6.422-6.455,17.159,3.298,6.258-4.126,3.765,3.802,7.25-1.076,1.798,.367,2.219-4.15,5.118,.96,3.091-1.485,3.397-3,.09-1.389,1.655-5.312,2.076,.461,6.885-28.42,6.909-.057-.214-27.126,6.37-.161,.037-10.291,12.102-.397,5.889-7.189,7.712,.314,3.802,2.639,.482-1.188,2.388,2.966,2.977-1.204,4.35-9.079,7.033-10.607,3.377-6.086-2.658-16.32,4.37-2.31,5.507,4.49,8.482-2.413,4.034-10.598,10.98,.683,6.104,76.606-14.96,7.858,9.928,5.709,1.979c1.961,.672,11.8,4.023,12.89,4.023,.426,.007,1.969,1.294,3.493,2.893l-1.861,1.401-.276,5.508-.521,1.982,11.886-.203,23.745-17.114-.223-.392c-.391-.688-2.409-4.144-3.653-4.559-1.112-.38-10.034,5.349-17.308,10.221l-7.971,5.11,.286-4.176,.287-.021,10.925-9.646c6.205-2.033,15.236-4.945,17.719-5.632l.086,.342,12.433-8.068,.336,.35,4.038-6.253,.303,3.796,4.122-.871,8.621-4.697,.417-3.989-4.018-7.865-5.993,2.081,5.375,6.168-2.63,1.865c-1.881,.225-3.753,.194-4.007,.008-.193-.968-4.415-7.162-5.704-9.037l-.131-.19-4.882-.546-.314-3.294,3.741-3.384-.227-3.66-3.722-.559v-2.529l.132-.053,.294-4.743-.03-.047,2.361-10.165,3.957-2.927-3.819-2.877,3.825-3.679,3.457,1.633,.807-4.057,4.509-.754,.562-3.189,4.083-.56,3-10.164,4.404-.553,3.121-4.796,5.724,1.342,1.595-4.607,10.771-7.588v-3.727l-2.326-1.616Z" fill="#ccc"/>
  <path d="M879.947,568.606l.525-10.298-2.418-9.446-6.354-7.443-9.627-20.118,1.875-5.114-9.395-10.238-11.265-14.997-1.053-4.2-7.339-18.018-.258-11.745,4.677-14.746,4.955-4.835-1.808-2.613-4.883-.181-1.261-6.509-6.349-5.629-1.115-3.913-11.329-11.005-.39-3.521-5.419-1.558-12.903-12.215-3.213-5.122-10.033-4.679,5.713-8.51-29.37,4.632,.299-3.161,2.47-2.302,2.454-5.764,8.543-2.921,12.721-11.774,4.152-.378,2.414-3.355,4.438-.187,6.613-7.421-.387-5.821-.249,.017-.02-.201-28.23,2.79,12.951-11.337,.195-.17-.027-.258c-.106-1.028-.075-2.121-.009-2.279,.115-.058,11.918-8.213,12.139-9.561l.026-.317-.182-.181c-.508-.507-12.065-10.412-13.794-11.893l.796-8.244-7.477-4.825-.836-2.854-5.019,4.754-7.583-1.336-1.29,1.944-8.701-2.746-4.949-7.117-7.286,1.098,.029,.193-.529-.012-.18,7.971-3.578,2.396-5.489,.197-.602,4.033-8.089,11.453-2.992,3.337-3.198-3.391-3.325,1.112-2.071,5.724-2.074-1.763-4.63,1.267-1.024,3.783-7.452-4.015-2.2,2.763c-.67-.469-2.056-1.403-3.059-1.836-1.499-.637-4.298,2.64-5.433,4.079l.14,.11-.994,.023,.178,7.383c-7.257,.601-7.257,1.548-7.257,1.957,0,.878,1.231,5.382,1.605,6.731l-1.87,1.445-5.46-3.655-4.394,.839-1.387,3.837-2.813,.218-2.904-5.108,1.323-5.585-5.14-7.065-13.147-8.752-.921-3.001,3.911-4.45-.273-2.756,1.402-4.223-5.582-3.834-3.713,2.237-3.256-8.553-13.888-11.84-.265-14.27-4.518-4.255-72.344,2.152,4.158,5.071-.536,1.617,4.339,4.358,1.283,4.634,.182-.051-.152,.261,5.426,3.161-2.663,8.025,4.659,.78,.362,4.739,3.369,1.882,1.452,10.159v39.948h-.011l.009,10.939,4.989,25.847-1.839,16.411v26.421h.266l-.118,.119,2.987,2.969,2.05-2.058h4.048l1.041,37.074,.003,.113,10.024,19.604,.754,5.045-4.21,7.926,1.307,12.564-4.467,3.984,.276,5.003,.611-.033,.042,.234,14.536-2.617,8.979,3.905,14.915,.606-2.341-3.815,4.384-2.78,3.802,1.376,3.733,4.569,4.489,1.858,5.562,6.117,7.588,1.693,2.642-3.638,4.793,.895,3.153,3.453,3.382-3.703,.506-6.325h1.859l2.079,4.172,6.393,1.357-.249,3.173,2.804,2.505,7.057-3.401,1.055-2.476-12.641-5.673-1.372-3.445,9.427-7.89-1.22-6.74-7.589,3.517-1.677,3.213-2.346-.772,1.413-4.737,.448,.078,.084-.341,4.539-.529,10.069-5.284,9.27,.258c.045,.005,.095,.005,.147,0v-.007s6.523-.294,6.523-.294l1.05-8.954h1.044l3.159,8.993h8.231v-.106l3.273-.175,1.837-4.745h2.617l.277,3.603,12.287-3.837,16.874,6.517,5.748,5.019-1.155,3.777h4.769l11.589-7.144h4.808l.261-4.217,7.971,.244,19.305,16.944,5.248-.263,4.68,4.699-1.819,17.234-.543,7.1,4.621,4.928,3.5-1.759-3.308-4.427,1.203-1.811,4.718,.903-.949,5.24-3.562,5.775,10.98,13.506,2.184-.729,1.78,7.415,5.046,1.598,4.232,10.89,6.679,1.075,7.104,8.719,3.489,.699-2.282,4.583,2.684,1.683,12.805-3.829,1.993-4.003v-9.87l3.528-1.909-2.472-7.45Zm-210.017-70.401l-4.577,4.113-4.533,.24-2.305-3.701,2.733-3.884,5.941,2.736,2.74,.495Z" fill="#ccc"/>
  <path d="M910.824,338.496l.743,3.172,6.769,.411,7.072-6.706-.598-7.589-3.223-2.738-1.215,5.28-2.659-.139v-3.765l-5.145-.215-4.671,3.376-1.6-.134v-2.939l14.68-5.102-.881-4.21-4.795-3.095,2.539-3.159-2.905-6.995-6.214,.58-3.078,2.595-2.542-2.551,3.946-.566,1.509-4.375-5.004-.272,.509-3.177,4.238-.304-4.399-5.741,1.361-6.835-12.48-4.904-.061-.056,10.961,.507-5.694-8.358-3.381-9.145,.642-8.905,5.983-7.41,2.157-.099v1.267l-6.399,6.698,4.021,4.593c.017,1.509,.13,11.684,.13,12.169,0,.57,1.2,2.422,2.206,3.876l.123,.178,6.603,1.038,.795,4.918,3.229,.518-.108,3.386c-3.903,2.062-3.765,2.762-3.708,3.05,.024,.204-.065,1.374-.151,2.506-.502,6.615-.458,8.801,.186,9.354,.511,.442,1.652,.565,2.767,.565,1.157,0,2.287-.133,2.655-.181l.337-.044,3.542-13.717,.387-6.877,3.715-4.396,.137-12.056-13.473-16.88,5.839,3.27,5.689,.797-.132,5.621,3.49,.176,8.779-21.562-.539-15.989-3.266-3.28-3.402,1.056,1.856-3.718,.305-5.281,2.373-1.786-.375-.408c-1-1.087-3.452-3.617-4.605-3.617-.717-.013-7.486-2.164-12.044-3.664l.055-.106-5.972-2.071-8.043-10.159-76.018,14.845-.845-5.937-12.09,9.794,.172,.212-.335,.045,4.152,31.213-2.678,5.236,3.268,3.284-1.158,14.102-6.248,7.808-3.841,.133-4.356,5.642,.068,4.353-1.301,2.196-2.987-2.15-3.201,3.985,.592,6.694-4.793,5.258-.15-.014-.819,8.501,.198,.17c3.46,2.964,12.093,10.369,13.741,11.831-1.434,1.589-10.909,8.402-11.522,8.738-.53,.268-.719,1.287-.563,3.032l-15.422,13.499,30.953-3.242,.306,4.601-6.083,6.826-4.522,.189-2.445,3.396-4.059,.37-12.776,11.887-8.912,3.046-2.477,5.936-2.681,2.5-.393,4.137,.091,.685,28.363-4.473-5.114,7.615,10.881,5.073,3.104,4.95,13.272,12.587,5.034,1.445,.356,3.228,11.451,11.124,1.13,3.956,6.343,5.625,1.355,6.991,5.453,.201,.017-.45,.557,.242,2.488-5.74,25.721-25.958,.092-6.671,9.254-11.869,8.469-1.373,4.064-4.379,.749-6.117,12.075-13.863,8.917-2.268,3.095-4.978-2.992-3.929-5.471,5.496-5.007-.65,.351-1.527,5.331-.185,3.321-6.253-3.686-3.119v-3.211h.596Z" fill="#ccc"/>
  <path d="M548.904,256.184l.029,1.005,71.252-2.12,3.929,3.7,.266,14.367,14.103,12.024,3.607,9.477,4.208-2.535,4.453,3.058-1.238,3.729,.253,2.547-4.012,4.566,1.194,3.895,13.306,8.82,4.84,6.653-1.316,5.547,3.43,6.032,3.76-.292-.018-.229,.389,.14,1.396-3.866,3.449-.658,5.743,3.845,2.988-2.308-.091-.326c-.611-2.18-1.562-5.785-1.659-6.693,.645-.422,3.97-.907,6.829-1.128l.475-.036-.204-8.287,.01-.071,.637,.502c1.737-2.205,3.788-4.021,4.272-3.798,1.242,.536,3.25,1.998,3.27,2.013l.389,.285,2.285-2.868,7.863,4.236,1.212-4.469,3.584-.982,2.783,2.366,2.409-6.656,2.272-.76,3.524,3.735,3.77-4.211,8.302-11.748,.518-3.464,4.965-.179,4.267-2.855,.172-7.792,6.37-.959,4.812,6.92,9.793,3.089,1.349-2.036,7.47,1.317,4.216-3.994,.483,1.649,7.569,4.885,.086-.133,.492,.449,5.177-5.677-.596-6.73,2.351-2.926,3.105,2.235,2.006-3.385-.066-4.286,3.851-4.99,3.831-.131,6.725-8.407,1.224-14.868-3.082-3.096,2.49-4.864-4.291-32.242-14.405,7.829-6.601,7.6-8.27-.268-2.329,4.163-18.122-5.753,3.474-8.472,.418-5.548,2.889-2.877,1.732-5.403c.773,.156,2.328,.474,2.711,.57,.23,.052,.933,.229,2.032-2.136l.057-.123-1.069-11.829-5.321-15.27-4.222-4.862-4.467,.149-.143,.215c-2.888,4.326-7.559,11.236-8.393,12.262-.564-.23-2.09-1.435-2.939-2.106-.864-.682-1.32-1.035-1.611-1.205,.042-.626,.639-2.556,1.235-4.18l7.859-10.563,.278-6.813-4.874-8.37,3.209-2.291-3.95-5.716-22.625-7.71-4.946,3.359,.403,6.306-4.941,4.96,1.332,5.082c-1.412,1.734-3.099,3.599-3.828,4.139-.238-1.117-.332-4.737-.281-7.999l.025-1.539-9.662,12.789-.108,.144,.399,9.355-3.982,8.129,1.48,10.744,6.878,13.39,.391,11.24-2.607,9.658-5.942,7.957-.301,.037-.117,.014-5.401,3.553h-4.47l-7.496-13.98,.497-5.152,.282-.024-.152-.579c-1.799-6.849-4.475-17.472-4.475-18.666,0-1.3,2.129-6.4,2.95-8.255l.807-5.914-1.405-3.177,3.257-2.908,.19-8.019,7.01-17.123-2.734-2.992-2.215,3.782-.955,3.933-3.629,3.278-.097,.119s-4.305,7.335-5.054,8.651c-.077,.133-.169,.204-.308,.233-.461,.103-1.231-.282-1.736-.612l.168-4.088c2.666-3.705,5.758-7.666,6.34-7.947,.473-.094,.539-.442,.548-.546,.011-.125,.02-.261-.146-.451l.732-4.967,6.084-10.552,4.286-3.583h3.291l.421,4.24,5.003-4.107,.346-3.139h1.86l1.044,2.104,8.223-5.307,8.947-.54,3.024,4.251,3.262-3.891h17.507l-.23-5.14h-8.453l-5.64-8.118-12.036,1.673-.781-2.825,1.72-6.269-22.377,8.475-.083,.097c-1.945,2.265-4.367,4.8-5.008,5.08-.9-.25-6.131-1.913-8.868-2.789l-.214-.068-2.126,1.248-10.715-9.275-4.565-.209-2.759,3.849-.395-3.705,11.667-11.119-9.752-.87-14.902,14.017-17.39,9.474-8.631-.333,1.836-7.546-2.706-.987-13.997,8.247-4.767-2.154,20.31-19.459,20.591-10.617-10.938-3.562-9.784-.287-2.805-1.971-8.987,6.104-9.612-7.306-2.539-.319-2.434,3.18-6.882-8.447-8.661-.562-3.455,3.737h-2.977l-2.88-3.681-10.501-1.845-1.716-4.184-.549-9.938-7.037-.308-.531,9.063-30.496,.262,.004,.476-.293,.057,1.486,7.647-.755,17.436,3.761,4.157,1.504,23.599,2.607,10.1,.369,7.809-.188-.005-.087,3.51-4.317,3.11,.107,3.593,7.017,5.917,.458,40.889h-3.899l3.13,10.998-3.416,8.381,3.05,3.83-.354,3.556h.016s-.023,.026-.023,.026l3.03,2.918-1.051,3.958,1.961,2.251,1.582,4.754,3.148,6.319,1.845,8.998,1.842,7.114v4.986l.747,.295Z" fill="#e1ea7e"/>
  <path d="M590.016,492.292l4.228-7.959-.817-5.459-10.022-19.659-1.066-37.992h-5.445l-1.64,1.646-2.134-2.12-.003-25.961,1.847-16.456,.008-.075-5.015-25.941v-9.9h.011s-.005-41.042-.005-41.042l-1.53-10.736-3.338-1.865-.382-4.993-4.287-.717,2.557-7.699-5.752-3.35-1.309-4.732-4.097-4.115,.512-1.543-4.009-5.375v-4.868l-1.861-7.253-1.847-9.008-3.183-6.413-1.582-4.77-1.768-2.089,1.064-4.016-3.114-2.763,.368-3.694-2.928-3.676,3.315-8.132-2.852-10.018h3.574l-.471-42-.003-.229-7.002-5.905-.077-2.602,4.274-3.08,.088-3.491,.226,.012-.399-8.419-2.611-10.124-1.505-23.778-3.708-4.099,.736-17.028,.002-.059-1.579-8.125-107.281-5.264-.019,.397-.391-.033-15.552,186.339-86.261-10.781-.496-.063-11.855,94.559-92.548-14.919-.476-.077-4.561,22.944h-2.033l-2.054-5.816-8.132,.209,.19,21.772-1.469,4.922-.311-.034-.807,7.428,6.178,12.668-8.241,4.137-.806,7.012-3.276,4.048-3.012,1.652-1.425,6.291,4.408,5.207-2.52,3.907-4.295-.807-2.421,6.081,68.612,40.219,40.429,6.735,.011-.079,18.121,1.178,.372-9.348,31.407,3.303,29.573,30.597,.774,5.811,3.379,3.915-1.049,7.642,5.376,8.368,22.768,15.92,5.711-2.009,7.678-15.423,1.782-1.115,4.306,1.623,2.629-2.906,7.851,3.307,6.84,.296,14.559,14.36,8.932,22.686,13.946,15.899v5.638l9.015,19.99,.069,.155,18.616,9.97,.103,.056,7.649,.263,9.43,5.14,5.591-4.728-5.45-9.581-2.841-10.11,2.951-7.538-2.655-3.151,2.713-1.136,3.103-6.519-2.322-3.629,1.1-1.291,5.653,2.433,4.64-10.251,.551-3.445,8.339-.557-2.268-3.709,5.124-2.908,1.324,3.193,21.273-12.87,.531-3.206,6.019-4.394-3.617-5.708,4.29-1.642v3.97l6.37,.583,11.796-4.409-.271-4.897,4.496-4.01-1.33-12.791Z" fill="#ccc"/>
  <g>
    <path d="M418.915,54.769l.051-.613-.612-.061c-62.512-6.193-124.49-15.355-184.227-27.228h0s-.163-.032-.163-.032c-.154-.031-.308-.06-.462-.09v.004s-13.821-2.597-13.821-2.597l.015-.06L130.274,.349l2.026,8.591,1.591,.177,.144,3.32-4.069,1.361,4.005,12.643-5.914,6.124,.174,7.168-2.803-.639,.669-7.415,2.858-1.72-.418-9.007-4.891-.409L96.914,4.008l1.948,35.04,2.163,2.949-3.782,.824-.513,3.098,3.216,1.899-.282,3.69-3.649-1.282-1.558,7.371,.108,.054c-1.486,4.229-2.938,8.552-4.343,12.733-5.792,17.234-11.782,35.057-21.595,50.826l-7.791,11.257,.191,20.901-2.041,3.324,2.488,3.609-.495,5.954-3.712,4.262-.265,4.509-8.759,9.33,.276,10.271,5.284,8.226-.249,6.533-3.169,4.506-1.091,12.347,7.939,12.49-1.039,9.158v2.412l6.426,5.573,5.007-3.831,.405,10.569-4.065-5.593-2.469,3.422-.552,14.96,9.02,4.262v3.572l-5.562,4.788v6.832l13.646,24.247-1.729,2.235v4.653l3.869,1.295-1.423,6.67-2.142,1.612-.614,4.631,6.283,4.302,3.98,.266,5.16,3.349,6.825,1.897,6.351,10.095,9.313,2.857v6.512l5.05,.282,11.888,17.388-.523,9.166,1.153,6.65,46.345,5.17,.089-.795,.304,.552,4.144,.778,3.394-5.261-4.602-5.436,1.193-5.271,2.666-1.462,3.743-4.551,.777-6.759,8.724-4.379-6.548-13.426,.58-5.333,1.991-6.667-.183-20.918,6.235-.161,2.056,5.818h3.762l4.597-22.865,92.77,14.957,.639,.103,11.895-94.875,87.146,10.805,15.709-188.218Z" fill="#ccc"/>
    <polygon points="112.868 391.746 113.228 388.243 109.097 381.726 106.308 381.641 105.763 385.859 108.437 391.746 112.868 391.746" fill="#ccc"/>
    <polygon points="87.974 355.617 88.208 352.918 90.896 357.352 95.369 357.123 96.448 353.268 91.914 349.878 88.358 349.878 87.993 352.323 85.969 349.032 83.399 349.032 81.249 352.512 85.026 355.745 87.974 355.617" fill="#ccc"/>
    <path d="M251.003,629.507l-.189-.165-5.555,.268-7.325-6.596-.531-3.201-1.989-1.708-14.366-17.051,.293-3.52-8.34-1.198-4.506,5.324-3.569-.446-1.639-3.293-4.054,.544-5.793-7.669h-4.982l-.679,1.815-2.425-1.512c-.048-7.131-1.111-103.963-1.122-104.963l-.004-.387-11.537-5.593-5.984,4.135-15.021-7.729-.117-.06-5.913-.368-7.846-6.755-8.131-1.113-3.965-6.37-8.209,6.675-6.516-.771-1.523,2.677h-3.607l-10.87,9.033-12.418,.378-5.394,6.248,7.71,9.292,.749,6.385,6.233,7.829,5.473,1.372-1.375,3.035-5.496-.688-5.561-1.047-1.137-7.237h-8.774l-8.132,1.542-5.761,4.549,1.042,2.09,4.194,3.158-1.633,3.246,1.01,6.805,10.885,3.827,4.935,3.026,3.643-.914,1.67-2.158,1.902,.955-2.359,2.133,2.718,4.332-3.221,5.113-5.962-2.343-5.876,5.098-3.174-.684-1.88-2.519-6.403,6.43-4.883-.29v4.471l-3.841,.7-1.277,4.487,4.818,4.033-.554,4.74,2.939,.682-2.878,3.112v6.056l5.821,7.012,6.037-4.545,1.045,5.248-3.404,2.104,.603,6.058,5.658,2.692,4.774-2.968-.43,4.318,4.706,5.61,4.438-1.948,4.774,1.745-3.697,4.641-2.927,6.628-7.197,5.164-8.281,2.682-3.872,4.404-12.124-1.322-3.505,2.977-10.936,1.309-5.225,1.735-.752,3.398,10.34,1.442,9.592-2.944,5.117-.27,1.991-1.25,3.338,1.291,6.136-1.607,4.583,1.083,10.065-5.47,14.42-10.005,4.608-.271,2.899-3.69h3.43l6.263-7.449-1.887-4.332,3.146-5.83,1.963-.249,5.655-4.258,.267-3.486,5.617-4.963,.507,2.544-3.362,2.597-.256,4.354-4.048,1.082,.9,9.046,6.858,.302,7.691-5.861h7.018l.274-10.17,3.014-2.809,7.025,1.46,1.264,3.386-7.895,3.581-.096,.218c-1.25,2.824-1.663,4.596-1.227,5.266,.165,.252,.435,.397,.74,.397,1.067,0,8.046-3.895,11.359-5.777l6.828,4.606,4.786,1.445,10.819-.863,2.196,4.348,6.118-.541,5.865,6.761,3.723-.87,8.43,8.995,4.549-.306,2.318-3.024,4.505,6.031-3.835,.964,.302,4.243,7.15,14.181,4.946-6.801,1.031,2.759-2.016,1.734,7.354,7.932c-.529,1.938-1.396,5.797-.278,6.921,.167,.167,.346,.354,.535,.55,1.153,1.2,2.459,2.56,3.617,2.56s4.808-2.316,5.9-3.026l.188-.123,1.479-4.706,3.407,.856,2.179,3.831,5.136-.324,.07-.506c.606-4.364,1.501-11.852,.676-12.959-.812-1.086-6.11-5.692-6.711-6.214Z" fill="#ccc"/>
    <polygon points="119.228 605.71 113.381 611.582 112.674 614.658 109.095 614.178 100.946 617.685 104.456 625.818 100.26 629.471 106.4 634.337 116.158 620.457 120.66 619.856 118.645 614.934 123.288 609.448 119.228 605.71" fill="#ccc"/>
    <path d="M45.771,568.298l-1.37-3.367-4.792,4.64,4.963,5.894,.337-.043c.335-.043,1.236,0,2.108,.04,.957,.044,1.707,.071,2.299,.071,1.305,0,1.838-.131,2.107-.49,.104-.141,.471-.443,.794-.711,.952-.787,1.584-1.348,1.701-1.936,.146-.725-.078-2.726-.125-3.119l-.028-.241-4.399-3.788-2.213,2.965-1.382,.086Z" fill="#ccc"/>
    <polygon points="47.761 537.271 50.68 532.96 45.7 528.237 45.293 523.605 40.254 521.077 34.358 522.896 34.839 527.4 47.761 537.271" fill="#ccc"/>
    <path d="M29.936,632.045c-.8-.267-6.284-1.803-6.518-1.868l-.188-.053-8.607,2.976-1.056,5.902,3.457,2.892,.445,.458,.399-.5c.592-.477,6.667-2.813,12.083-4.77l.323-.117,.075-.336c.916-4.137-.083-4.473-.413-4.584Z" fill="#ccc"/>
    <polygon points="11.012 632.372 7.265 632.953 .203 635.259 .989 643.168 12.912 639.516 14.017 635.232 11.012 632.372" fill="#ccc"/>
    <path d="M422.107,641.459v-2.362l-10.954-5.894h-2.532l-5.708-5.351-3.028,1.012v9.254l-5.009,6.192,.235,.377c2.583,4.15,5.292,9.176,5.168,10.049-.386,1.547-.057,9.437-.018,10.331l.013,.286,5.881,4.644,11.098-9.995,4.058-.369,8.964-5.479,.883-3.986-9.05-8.709Z" fill="#ccc"/>
    <path d="M397.874,614.839l-6.864-6.083h-3.844l-1.477,1.298-1.846-.142-2.484-4.222-3.042,.47-2.693,2.479,2.367,6.484,4.035-.366c1.317,6.803,2.057,6.986,2.414,7.075,.087,.022,.604,.09,1.19,.09,.618,0,1.312-.075,1.657-.356l9.017-2.452,1.569-4.275Z" fill="#ccc"/>
    <path d="M375.458,607.606l1.988-5.243h-6.138l-.184-2.016-.517-.048c-.827-.078-8.103-.757-8.858-.757-.396,0-1.221,0-2.848,5.719l-.205,.721,.746,.072s13.667,1.316,15.539,1.504l.477,.048Z" fill="#ccc"/>
    <path d="M340.691,585.455c-1.9,2.06-4.281,4.38-4.943,4.677-.888-.173-2.966-.178-3.21-.178h-1.13l6.334,10.088,4.506-2.264,1.751,2.638h.335c.948,0,5.83-.358,6.038-.374l1.078-.079-10.224-15.087-.535,.579Z" fill="#ccc"/>
    <polygon points="295.45 570.173 289.951 575.086 290.182 578.784 301.322 583.458 305.106 577.548 304.053 571.409 295.45 570.173" fill="#ccc"/>
    <polygon points="276.655 580.918 276.894 584.724 280.171 585.234 284.886 579.638 281.624 576.361 276.655 580.918" fill="#ccc"/>
    <polygon points="373.585 610.399 369.333 608.161 365.765 608.877 366.006 612.027 370.185 618.741 376.492 614.217 373.585 610.399" fill="#ccc"/>
    <path d="M382.252,619.354c-1.017-.511-2.074-1.566-2.084-1.577l-.429-.432-3.566,3.361-.046,.17c-.183,.672-.42,1.888,.04,2.489,.182,.238,.448,.369,.75,.369,.769,0,4.756-.364,4.926-.38l.321-.029,.162-.279c.165-.283,.971-1.753,.652-2.822-.116-.39-.367-.69-.725-.87Z" fill="#ccc"/>
  </g>
  <g>
    <path d="M113.159,391.996l.393-3.813-4.25-6.702-3.148-.096-.583,4.514,2.77,6.098h4.817Zm-5.472-8.814l.634,.02,3.428,5.405-.169,1.64h-2.111l-2.098-4.618,.316-2.446Z" fill="#fff"/>
    <path d="M88.27,355.857l.188-2.155,2.369,3.907,4.801-.246,1.174-4.192-4.738-3.543h-3.854l-.295,1.98-1.738-2.826h-2.849l-2.336,3.78,4.014,3.437,3.266-.142Zm-3.074-5.325l1.559,2.535-.096,1.108-1.042,.046-2.352-2.015,1.035-1.675h.895Zm6.584,5.275l-2.187-3.606,.123-.823h1.765l3.312,2.477-.511,1.825-2.501,.128Z" fill="#fff"/>
    <path d="M1017.397,83.26l1.417-3.563-2.597-3.559-6.778-.179-.74-7.156-6.87-.786-9.008-29.63-.082-.273-.229-.171c-7.257-5.467-7.6-5.553-7.805-5.604-.429-.107-3.922-.535-4.318-.584l-.795-.099-.893,4.188-4.83,1.12-.674,2.364-2.438-.444,1.114-4.855-4.863-1.085-3.744,6.704-6.466,17.188-.039,.105,3.237,6.142-4.118,3.76,3.833,7.31-1.038,1.734,.362,2.185-4.166,5.136,.978,3.145-1.333,3.049-2.927,.089-1.434,1.708-5.471,2.136,.457,6.837-27.722,6.738-.056-.211-27.722,6.509-10.251,12.054-.186,.22-.396,5.871-7.126,7.645-.076,.081,.352,4.243,2.428,.445-1.085,2.179,2.999,3.011-1.112,4.016-8.917,6.907-10.396,3.311-6.069-2.651-16.48,4.414-.118,.031-2.445,5.831,4.467,8.439-2.26,3.791-9.307,9.645-.024-.169-11.807,9.572-14.417,7.838-6.592,7.553-8.322-.27-2.295,4.098-17.457-5.543,3.322-8.101,.435-5.528,2.813-2.801,1.702-5.218c.66,.135,2.021,.413,2.373,.502,.531,.134,1.358,.026,2.458-2.343l.099-.213-1.091-11.995-5.331-15.308-4.411-5.121-4.837,.162-.249,.374c-2.604,3.901-7.006,10.421-8.192,12.005-.654-.385-1.902-1.371-2.606-1.928-.73-.576-1.151-.901-1.442-1.1,.124-.697,.611-2.299,1.167-3.816l7.852-10.557,.047-.062,.288-7.04-4.761-8.175,3.232-2.308-4.23-6.122-22.812-7.773-.118-.041-5.278,3.585,.406,6.354-4.975,4.996,1.338,5.106c-1.177,1.435-2.391,2.781-3.149,3.502-.15-1.44-.227-4.389-.181-7.269l.042-2.679-10.355,13.705-.188,.252,.401,9.398-3.959,8.081-.033,.069,1.496,10.862,6.882,13.442,.386,11.107-2.574,9.541-5.81,7.777-.287,.035-5.443,3.548h-4.083l-7.396-13.691,.456-4.733,.416-.034-.265-1.009c-2.165-8.243-4.466-17.556-4.466-18.581,0-1.04,1.707-5.368,2.919-8.108l.84-6.053,.009-.07-1.338-3.028,3.176-2.836,.193-8.117,7.018-17.14,.06-.146-3.233-3.542-2.472,4.223-.971,3.923-3.57,3.229-.142,.179c-.043,.074-4.317,7.356-5.061,8.659-.026,.046-.034,.048-.062,.053-.229,.054-.759-.136-1.279-.448l.155-3.762c2.738-3.801,5.542-7.353,6.093-7.723,.548-.129,.774-.546,.801-.871,.013-.152,.029-.354-.125-.594l.698-4.734,6.019-10.438,4.134-3.456h2.82l.457,4.6,5.662-4.648,.325-2.961h1.297l1.128,2.271,8.495-5.482,8.649-.522,3.184,4.478,3.462-4.128h17.733l-.263-5.888h-8.62l-5.575-8.024-.087-.126-11.946,1.661-.667-2.414,1.887-6.88-22.955,8.694-.148,.057-.205,.191c-2.004,2.334-4.087,4.479-4.774,4.925-1.224-.358-6.187-1.937-8.713-2.744l-.372-.119-2.041,1.198-10.551-9.134-.066-.057-4.897-.224-2.31,3.222-.272-2.554,12.136-11.566-10.743-.958-14.997,14.106-17.266,9.407-8.078-.312,1.806-7.432-3.186-1.161-13.99,8.243-4.092-1.848,19.885-19.053,20.814-10.732,.532-.275-11.792-3.84-9.781-.302-2.927-2.056-8.983,6.102-9.43-7.168-.054-.04-2.852-.357-2.279,2.977-6.691-8.213-9.005-.584-3.467,3.748h-2.634l-2.857-3.652-10.447-1.835-1.614-3.938-.565-10.218-7.744-.339-.533,9.086-29.225,.251-.004-.023-106.973-5.249,.004-.056-.856-.085c-62.487-6.19-124.461-15.351-184.206-27.227l-.886-.168v.002l-13.301-2.499,.01-.042L130.403,.107,130,0l2.162,9.169,1.554,.172,.126,2.918-4.124,1.38,4.035,12.735-5.883,6.092,.168,6.951-2.277-.519,.638-7.071,2.877-1.73-.436-9.375-5.05-.423L96.703,3.543l1.975,35.519,.004,.074,1.979,2.699-3.571,.778-.569,3.434,3.229,1.907-.245,3.211-3.61-1.269-1.657,7.838,.084,.042c-1.448,4.128-2.865,8.343-4.236,12.421l-.036,.107c-5.788,17.222-11.772,35.028-21.564,50.764l-7.791,11.257-.045,.065,.191,20.909-2.089,3.401,2.53,3.67-.481,5.783-3.715,4.265-.265,4.503-8.768,9.34,.281,10.442,5.279,8.219-.243,6.381-3.166,4.5-1.104,12.498,7.938,12.487-1.03,9.099v2.526l6.667,5.781,4.786-3.661,.355,9.265-3.785-5.206-2.716,3.763-.561,15.2,9.025,4.265v3.3l-5.562,4.788v7.012l13.597,24.16-1.68,2.172v4.918l3.828,1.281-1.357,6.36-2.15,1.619-.648,4.887,6.41,4.389,.056,.039,3.984,.266,5.105,3.313,6.801,1.902,6.3,10.013,.049,.079,9.225,2.83v6.563l5.163,.289,11.771,17.216-.515,9.138,1.186,6.835,45.201,5.042-1.849,4.642,69.15,40.532,40.833,6.829,.251,.041,.017-.115,17.972,1.167,.256,.018,.373-9.367,30.996,3.259,29.506,30.526,.775,5.822,3.355,3.887-1.049,7.641,5.471,8.515,23.007,16.122,.105,.073,6.054-2.13,7.729-15.522,1.543-.968,4.388,1.654,2.632-2.91,7.637,3.219,6.852,.319,14.456,14.259,8.936,22.697,13.975,15.964v5.655l9.169,20.279,.035,.077,18.927,10.136,7.729,.292,9.612,5.24,6.042-5.11-5.592-9.817-2.814-10.017,2.997-7.655-2.481-2.944,2.387-.999,3.265-6.858-2.294-3.585,.748-.877,5.758,2.478,4.809-10.621,.535-3.261,8.688-.58-2.398-3.919,4.443-2.52,1.334,3.216,21.773-13.174,.098-.06,.536-3.236,6.201-4.526-3.573-5.641,3.375-1.292v3.785l6.761,.617,.057,.005,12.177-4.551-.007-.122,13.822-2.488,8.923,3.882,15.824,.667-2.525-4.117,3.943-2.501,3.554,1.287,3.707,4.537,4.562,1.922,5.562,6.115,.053,.059,7.98,1.781,2.663-3.665,4.464,.834,3.361,3.681,3.762-4.118,.489-6.144h1.297l2.067,4.148,6.283,1.334-.239,3.049,3.142,2.808,7.443-3.589,1.26-2.954-12.904-5.791-1.225-3.073,9.437-7.897-1.35-7.464-8.105,3.756-.077,.035-1.597,3.062-1.715-.563,1.223-4.099,.466,.081,.106-.429,4.308-.502,10.167-5.308,9.195,.256c.072,.008,.147,.008,.222,0l.046-.005,.026,.295,6.783-.62,1.053-8.973h.454l3.116,8.874,.06,.167h8.911v-.125l3.179-.171,1.842-4.757h2.031l.29,3.744,12.675-3.957,16.781,6.481,5.548,4.843-1.239,4.048h5.403l11.65-7.182h5.078l.261-4.229,7.52,.23,19.345,16.979,.076,.067,5.262-.265,4.463,4.482-1.812,17.161-.56,7.3,4.948,5.277,4.164-2.091-3.434-4.598,.928-1.396,4.137,.792-.875,4.836-3.683,5.972,11.367,13.984,2.054-.688,1.745,7.265,5.103,1.617,4.215,10.848,.053,.133,6.786,1.092,7.137,8.759,3.161,.635-2.229,4.474,3.128,1.959,13.189-3.942,2.088-4.195,.026-9.841,3.628-1.962-2.562-7.72,.528-10.341-2.453-9.578-6.426-7.569-9.589-20.039,1.909-5.207-9.574-10.432-11.28-15.018-1.057-4.198-7.353-18.051-.258-11.678,4.657-14.678,5.14-5.015-1.494-2.159,2.279-5.257,25.716-25.954,.071-.071,.092-6.698,9.091-11.66,8.453-1.369,4.182-4.504,.055-.06,.75-6.127,11.929-13.695,8.854-2.251,.098-.024,3.312-5.326-3.407-4.475-5.645,5.672-4.422-.574,.195-.849,5.265-.183,3.562-6.71-3.784-3.203v-2.364l.669,2.854,7.1,.431,.108,.006,7.321-6.941-.624-7.924-3.81-3.235-1.281,5.574-1.995-.104v-3.771l-5.547-.232-.087-.003-4.666,3.372-1.121-.094v-2.333l14.745-5.125-.98-4.685-4.58-2.957,2.42-3.009-3.097-7.455-6.528,.608-.078,.008-2.905,2.449-1.777-1.783,3.438-.493,1.745-5.058-5.087-.276,.398-2.479,4.634-.333-4.718-6.158,1.389-6.977-10.838-4.26,9.56,.441-6.079-8.91-3.351-9.058,.63-8.712,5.805-7.192,1.602-.072v.728l-6.532,6.84,4.155,4.748c.019,1.681,.128,11.553,.128,12.032,0,.241,0,.806,2.273,4.087l.214,.31,6.495,1.022,.796,4.92,3.172,.508-.091,2.845c-3.956,2.116-3.796,2.91-3.714,3.314,.019,.192-.076,1.44-.152,2.446-.532,7.004-.467,8.991,.314,9.663,.506,.438,1.52,.659,3.014,.659,1.087,0,2.158-.117,2.7-.187l.586-.077,3.601-13.917,.398-6.876,3.722-4.405,.141-12.326-12.375-15.505,4.182,2.342,5.494,.797-.133,5.654,4.118,.207,8.89-21.841,.021-.049-.543-16.122-.004-.098-3.529-3.545-2.785,.864,.534-1.07,11.044-.188h.079s23.896-17.224,23.896-17.224l.182-.132-.388-.683c-.726-1.275-2.553-4.288-3.858-4.725-.426-.124-1.565-.486-17.599,10.25l-7.337,4.703,.213-3.108,.088-.007,10.948-9.667c6.497-2.129,14.506-4.703,17.239-5.491l.119,.476,12.595-8.174,.449,.468,3.689-5.717,.249,3.118,4.531-.959,8.767-4.758,.116-.062,.439-4.214,.007-.074-4.209-8.241-6.812,2.364,5.459,6.266-2.214,1.568c-1.638,.189-3.127,.165-3.587,.025-.63-1.521-4.478-7.164-5.666-8.893l-.226-.329-4.745-.53-.267-2.803,3.73-3.374-.256-4.135-3.7-.556v-1.953l.118-.048,.311-5.01-.013-.076,2.297-9.889,4.242-3.139-3.863-2.908,3.32-3.194,3.651,1.727,.849-4.27,4.51-.752,.559-3.178,4.048-.555,2.994-10.148,4.327-.543,3.069-4.715,5.788,1.357,1.664-4.805,10.709-7.546,.106-.074v-4.11l-2.239-1.556Zm-319.259,408.611c-.323-.417-1.935-4.999-2.584-54.281-.343-25.992-.21-49.444,.048-53.331l46.756-3.806,13.356,50.764,5.742,6.333-.241,4.837c-4.094,12.637-3.019,13.719-2.665,14.074,.809,.811,2.366,3.26,2.896,4.107l-.805,7.545,3.001,3.215-52.019,3.9-.244,.018,.332,6.329,4.744,3.359v6.465h-5.921l-3.116-8.874-.06-.167h-3.251l-1.068,9.109-4.958,.454,.06-.048-.003-.003ZM965.3,169.17l8.659,9.022-10.261,6.659-3.624-14.384,5.226-1.298Zm6.049-43.385l3.631,2.732-2.875,2.127-2.053,8.839-1.814-2.817-3.726-2.275,.244-4.169-13.335-37.812,1.003-1.195,3.251-.097,2.038-4.662-.894-2.873,4.07-5.019-.384-2.329,1.21-2.027-3.661-6.981,4.122-3.762-3.503-6.644,6.173-16.437,3.053-5.449,1.873,.419-1.128,4.926,5.8,1.057,.826-2.9,4.908-1.136,.791-3.71c1.484,.186,2.928,.373,3.204,.414,.518,.298,3.938,2.817,7.056,5.164l9.26,30.456,6.613,.757,.753,7.287,7.456,.196,1.521,2.084-1.575,3.956,2.63,1.827v2.286l-10.468,7.377-.066,.046-1.332,3.846-5.446-1.277-3.298,5.064-4.657,.584-3,10.162-4.19,.574-.566,3.215-4.48,.75-.647,3.254-2.716-1.283-5.67,5.456Zm-48.289,127.654l.129-5.517-6.57-.88-6.529-3.657-.609-7.221,4.896-3.757,.508-3.584,7.097-2.97-10.18-10.222h-1.979l-.373-2.802,2.273-2.279-2.207-4.151,4.415-8.395c3.529,1.161,11.319,3.687,12.304,3.687h0c.255,.026,1.44,.919,2.961,2.474l-1.661,1.252-.277,5.544-3.216,6.443,5.689-1.767,2.296,2.307,.511,15.159-8.303,20.394-1.175-.059Zm-11.688,35.972c.119-1.567,.162-2.202,.158-2.554,.388-.395,1.809-1.29,3.225-2.026l.455-.236,.173-5.405-3.445-.553-.796-4.922-7.007-1.104c-.899-1.321-1.652-2.557-1.751-2.823-.004-.694-.078-7.429-.114-10.703l-.021-1.958-3.526-4.027,5.911-6.189v-.122l6.942,22.409,.07,.229,.812-.218c3.925-1.05,8.47-2.203,9.838-2.449l-.076,6.731-3.694,4.37-.401,7.229-3.277,12.655c-1.893,.188-3.376,.099-3.681-.054-.358-.865,.065-6.429,.206-8.281Zm-18.297-27.703l3.535,9.539,4.249,6.269-9.265-.429-2.366-2.194-5.98,.72,.188-3.002,4.396-7.728,.104-.184-6.601-5.426-.084-.068-3.627,.456v-5.161l-4.108-.201-4.838-5.551-8.414-.135,41.546-8.11,.278-.053,.438-.468,1.148,3.708-3.26,.15-6.645,8.231-.694,9.636Zm9.22,28.946l3.226,4.211-2.78,.198-.926,5.768,4.712,.255-.64,1.856-5.835,.837,5.377,5.396,3.718-3.134,4.776-.446,2.202,5.307-2.053,2.552-108.737,18.419-.779,.132,.017,.25-26.121,2.582,12.392-10.847,.097-.086-.046-.451c-.099-.934-.069-1.771-.002-2.058,1.438-.977,8.472-5.891,11.105-8.363l5.074,4.654,4.684,.262,3.456-3.555,2.665,1.46,5.428-1.818,1.621-2.622,7.182-3.434,3.204-2.843-.824-5.795,2.85-6.269,3.355-11.659,2.085-1.396,1.68,3.373,3.843-.386,2.908-10.352,3.809-.256,5.789-9.496,.123-7.081,.628-.097,6.278,4.73,4.409,.17,1.265-4.573,2.365,.116v5.478l4.848-.608,4.964,4.08-3.87,6.805-.072,.125-.371,5.556,7.262-.874,3.145,2.916,11.775,4.692-1.258,6.319Zm5.862,40.535l4.699-3.397,3.351,.141v3.752l5.12,.269,.967-4.201,1.062,.901,.501,6.365-6.163,5.844-5.149-.312-.76-3.238h-3.065v5.229l3.327,2.814-2.427,4.571-5.595,.196-.932,4.038,7.191,.932,4.838-4.859,1.46,1.918-2.302,3.701-8.8,2.238-12.465,14.311-.175,.202-.746,6.095-3.441,3.706-7.914,1.283-23.831-16.455-.076-.053-22.491,2.427c-5.979-7.853-6.677-7.852-7.139-7.852-.747,0-20.635,2.741-26.712,3.581l-10.598,5.905-27.444,4.33,.243-2.561,2.478-2.31,2.394-5.677,8.431-2.882,.126-.044,12.701-11.786,4.218-.385,2.421-3.363,4.438-.187,6.787-7.617,.07-.078-.347-5.219,107.68-18.238,4.649,3.002,.516,2.462-14.466,5.029v5.187l3.371,.283Zm-46.921,190.383l9.958,20.808,6.346,7.482,2.3,8.984-.528,10.354-.002,.047,2.203,6.64-3.255,1.761v10.421l-1.593,3.199-11.703,3.499-1.11-.697,2.539-5.099-4.788-.961-7.16-8.788-6.454-1.039-4.165-10.717-.044-.111-4.958-1.57-1.96-8.159-2.716,.907-9.82-12.078,3.118-5.056,1.332-7.008-6.984-1.335-2.254,3.392,2.922,3.912-1.129,.567-3.526-3.762,.497-6.507,1.884-17.846,.012-.118-5.6-5.623-5.33,.267-19.293-16.934-.067-.06-9.842-.301-.267,4.279h-3.928l-11.65,7.182h-2.542l.878-2.87-6.518-5.69-17.47-6.804-.285-.109-11.16,3.484-.244-3.17h-4.852l-1.865,4.819-1.956,.105v-7.241l-4.791-3.393-.197-3.774,51.83-3.887,2.646,5.081,52.696-3.19,1.485,4.847h5.026l-1.562-10.968,2.41-1.528,1.837,2.345h4.706l7.181,17.607,1.062,4.253,11.589,15.538,8.91,9.711-1.797,4.9Zm-196.43-19.519l-4.205,.222-2.071-3.324,2.429-3.45,5.75,2.641,2.037,.373-3.939,3.539Zm2.471-5.568l-6.912-3.184-3.933,5.59,3.23,5.187,5.854-.31,4.967-4.464,.953,.106-1.531,5.129,4.742,1.562,2.011-3.852,5.587-2.588,.766,4.233-9.628,8.058,1.954,4.909,11.985,5.379-.328,.769-5.799,2.796-1.622-1.45,.292-3.715-6.959-1.479-2.175-4.361h-3.994l-.571,7.155-2.064,2.261-2.465-2.698-6.126-1.143-2.638,3.63-6.318-1.41-5.469-6.015-4.515-1.896-3.73-4.565-.043-.054-4.816-1.742-6.123,3.884,1.716,2.798-12.075-.464-9.259-4.027-14.13,2.545-.174-3.129,4.521-4.032-1.342-12.916,4.209-7.925,.039-.072-.838-5.604-10.059-19.772-.627-22.333,53.943-2.071,4.979,15.5-11.55,21.616-.029,9.686,36.978-1.067,.642,8.652,.005,.07,4.144,5.721-.499,2.007-5.177-.904Zm-80.881,17.267l-10.597,3.961-4.829-.44v-4.73l-7.748,2.966,3.841,6.062-5.456,3.981-.52,3.148-19.44,11.763-1.312-3.165-7.738,4.391,1.833,2.995-7.2,.48-.664,4.3-4.051,8.949-5.366-2.312-2.427,2.847,2.47,3.859-2.56,5.378-3.969,1.659,3.346,3.972-2.831,7.233,3.016,10.708,4.994,8.817-4.018,3.397-8.871-4.835-7.736-.294-18.096-9.691-8.804-19.416v-5.991l-14.152-16.088-8.947-22.727-.048-.124-15.223-15.044-7.065-.272-8.635-3.638-2.665,2.945-4.084-1.539-2.695,1.688-7.632,15.329-4.538,1.597-21.999-15.338-5.028-7.825,1.069-7.783-3.532-4.09-.782-5.875-29.915-30.95v-3.919l69.578,6.765,9.12-105.868,55.081,2.325-2.205,45.568-.021,.425,7.728,6.715,6.749-1.898,.804,.404v3.981l12.294,1.098,2.362,3.558,3.395-2.169,3.226,.215,5.354,9.058,4.773-4.512,3.352,2.402h4.609l-.416,4.142,5.438-5.455,2.937,2.21,3.158-1.055,5.517,4.459,3.815-3.569,11.641-2.286,3.503,1.76,2.885-3.163,12.832,7.36,2.622,2.605,2.214-2.222h3.554l1.039,37.053,10.089,19.784,.731,4.891-4.192,7.893-.036,.067,1.307,12.555-4.482,3.999,.252,4.565Zm-341.806-61.938l-67.713-39.69,1.573-3.95,4.107,.771,3.585-5.558-4.641-5.481,1.141-5.039,2.567-1.408,3.816-4.61,.047-.058,.77-6.697,8.824-4.43-6.625-13.583,.563-5.217,2.002-6.703-.182-20.71,5.808-.149,2.054,5.813h4.143l4.59-22.83,91.658,14.778-19.22,131.196-38.867-6.444Zm-138.942-92.978l-6.313-10.035-.052-.083-7.081-1.936-5.373-3.486-3.961-.266-5.184-3.549,.41-3.094,2.088-1.57,1.819-8.53-4.115-1.377v-3.061l2.025-2.617-13.942-24.771v-5.75l5.562-4.788v-5.21l-8.984-4.245,.5-13.519,.991-1.374,5.75,7.909-.706-18.394-6.335,4.849-4.987-4.325-.004-1.628,1.094-9.614-7.951-12.508,1.012-11.438,3.193-4.541,.283-7.447-5.312-8.27-.249-9.235,8.647-9.21,.062-.065,.267-4.54,3.699-4.247,.58-6.979-2.238-3.246,1.491-2.428,69.597,18.037-18.441,69.809-.102,.387,77.592,113.215-.731,6.728,6.088,12.481-8.124,4.076-.819,7.132-3.175,3.923-3.107,1.703-1.508,6.66,4.366,5.159-2.244,3.479-4.367-.821-.143,.359-44.373-4.95-.933-5.342,.544-9.532-12.524-18.318-.07-.102-4.371-.244v-6.202l-9.84-3.02Zm-4.069-311.833l-3.136-1.853,.179-1.08,5.043-1.101-3.265-4.449-1.764-31.724,24.541,15.18,3.988,.36,.315,6.797-2.743,1.652-.856,9.479,5.961,1.358-.205-8.469,6.099-6.316-3.83-12.087,3.74-1.251-.247-5.732-1.818-.202-1.208-5.125,85.58,22.722-14.588,59.527-.064,.262,1.676,4.486-1.157,3.772-29.819-8.983-.078,.148c-4.613-.199-22.234-1.121-24.23-1.976-.742-.315-3.145-.212-8.447,.102-2.21,.133-4.717,.284-5.243,.217-.443-.088-3.638-1.666-7.306-3.608l.003-.309-.848-.044c-3.83-.194-11.43-.639-12.777-.922-.796-.167-3.438-1.31-5.539-2.273l2.43-10.884-15.737-7.901,.966-4.57,3.881,1.364,.502-6.568Zm456.098,4.744l4.438,.194,.486,8.781,2.101,5.251,10.735,1.886,2.969,3.795h4.253l3.42-3.699,7.411,.482,7.609,9.338,3.016-3.938,1.389,.174,9.967,7.576,.144,.108,9.023-6.129,2.369,1.665,9.935,.269,7.686,2.503-17.733,9.144-23.43,22.398-.075,.072-.266,14.794-5.898,3.865-3.545,7.111,4.383,5.136-1.847,.824,.429,16.093,.586,.191c.056,.019,5.519,1.808,6.549,2.109,1.223,.847,12.329,10.267,19.616,16.494l.331,6.313-85.339,2.861-.458-40.85v-.114s-7.034-5.931-7.034-5.931l-.067-2.247,4.281-3.084,.084-3.308,.254,.013-.427-8.911-2.619-10.178-1.51-23.853-.005-.087-3.708-4.097,.733-16.941-1.3-6.817,30.537-.262,.527-8.998Zm69.442,53.824l-1.942,7.99,10.488,.404c1.227,1.124,6.511,5.935,7.637,6.502,1.151,.578,12.098,1.902,15.562,2.311l3.018,2.651,9.223,.566c3.502,2.521,6.608,4.966,7.265,5.713-.176,.891-1.041,3.768-1.803,6.137l-.276,.859,4.105,1.178-.366,4.077,.618,.236c.684,.262,1.434,.58,1.984,.842-1.223,1.21-3.282,3.829-6.129,7.796l-.154,.212-.214,5.235,.365,.275c.176,.132,1.746,1.285,3.057,1.011,.529-.11,.953-.421,1.226-.9,.43-.754,2.172-3.734,4.905-8.392l.077-.133,3.848-3.477,.97-4.086,1.204-2.06,.886,.97-6.719,16.412-.243,7.828-3.561,3.181,1.654,3.742-.7,5.272c-.538,1.225-3.019,6.965-3.019,8.702,0,1.563,3.164,13.821,4.259,18.018l-45.987,3.818-3.416-4.164-5.822-1.525-1.456-8.289,1.391-4.749-3.547-4.658-.402-7.684-.286-.244c-19.749-16.882-20.224-17.004-20.48-17.069-.311-.078-3.212-1.016-5.977-1.919l-.366-13.692,2.919-1.301-5.15-6.034,2.816-5.654,6.277-4.111,.268-14.991,1.436-1.376,5.562,2.513,14.061-8.284,.938,.341Zm47.343-14.52l-9.962,9.494,.853,7.978,4.431-6.183,3.343,.153,11.105,9.614,2.449-1.437c2.479,.791,8.032,2.558,8.669,2.717,.47,.118,1.253,.32,6.162-5.375l19.528-7.396-1.087,3.96-.018,.066,1.205,4.355,12.399-1.724,5.57,8.02h7.862l.106,2.388h-16.72l-2.53,3.019-2.436-3.423-10.01,.603-.065,.005-7.235,4.67-.739-1.489h-3.949l-.421,3.811-2.581,2.119-.29-2.92h-5.041l-4.74,3.964-6.375,10.951-.702,4.391c-.377-.177-.824-.367-1.354-.579l.378-4.203-3.762-1.078c.767-2.424,1.642-5.331,1.642-5.989,0-.479,0-1.202-8.229-7.104l-.205-.146-9.128-.561-2.977-2.616-.271-.032c-5.877-.689-14.496-1.819-15.252-2.169-.593-.298-3.779-3.076-6.713-5.746l16.287-8.874,14.688-13.777,6.111,.546Zm38.573,112.964l.01-.037-.405-11.708-6.906-13.432-1.403-10.186,3.953-8.071-.394-9.216,6.958-9.209c.02,6.387,.591,6.615,1.097,6.819,.53,.213,1.263,.507,5.642-4.916l.277-.344-1.308-4.995,4.824-4.846-.393-6.144,3.729-2.532,21.558,7.346,2.922,4.228-3.129,2.233,5.308,9.112-.245,5.989-7.672,10.318-.099,.188c-1.682,4.548-1.362,5.152-1.208,5.443,.129,.244,.351,.429,.527,.463,.163,.076,1.013,.747,1.469,1.108,2.921,2.305,3.748,2.824,4.531,2.232,.423-.319,3.303-4.471,8.56-12.339l3.109-.104,3.586,4.081,5.204,14.864,1.028,11.384c-.238,.475-.501,.891-.67,1.101-.858-.19-2.783-.577-2.896-.6l-.768-.154-2.007,6.26-3.018,3.006-.408,5.771-3.447,8.403-20.389,1.241-.029-.288-35.226,4.312,4.906-6.57,2.82-10.214Zm109.306-8.194l.708,4.97,76.647-14.968,7.729,9.764,.046,.057,4.841,1.679-4.777,9.084,2.035,3.825-1.969,1.977,.688,5.175h2.786l7.83,7.862-5.614,2.349-.547,3.861-3.952,3.034-3.262-.273-4.333,4.624-62.722,12.244-.072-.211-17.765,3.436-3.938-20.019-.048-.247-.062,.013-4.031-30.307,9.781-7.928Zm-638.094-10.007l.032-.121,48.493,9.521-27.774,138.149h-1.473l-2.065-5.847-8.799,.228,.193,22.167-1.122,3.759-76.448-111.547,18.34-69.428,50.624,13.119Zm111.008-41.353l.942-10.441,113.443,14.622-7.734,92.664-119.542-14.821,3.194-20.982,.085,.017,9.736-60.771,.017-.108-.142-.178Zm-60.81,51.301l49.393,9.412-3.476,22.826,34.244,4.246-11.67,93.083-91.571-14.764,23.081-114.804Zm423.153,178.632l-2.506,2.569-1.704,7.827-5.732,6.575-.063,.074,.266,8.215-.085,.086c-5.044,5.157-10.26,10.489-11.285,19.303l-.017,.142,2.108,10.063-.881,4.209-53.906,2.067-.402-14.33h-5.981l-1.493,1.499-1.77-1.758-.006-25.863,1.864-16.613,.005-.038-4.554-23.595,81.29-3.131,2.522,4.43-5.737,4.006-.119,.084,.398,4.123,12.021-1.135-.163,2.317-4.282,3.493,.212,5.38Zm32.862-56.463l.395,.31,.154-.196c1.773-2.251,3.489-3.688,3.825-3.688h.01c1.189,.513,3.179,1.957,3.199,1.973l.678,.495,2.313-2.906,8.008,4.312,1.278-4.718,3.191-.873,3.044,2.586,2.532-6.995,1.876-.627,3.639,3.857,4.071-4.549,8.323-11.778,.519-3.297,4.766-.171,4.518-3.023,.169-7.677,5.836-.878,4.755,6.838,10.187,3.213,1.37-2.066,7.419,1.306,3.912-3.705,.352,1.199,7.242,4.674-.788,8.167,.346,.295c4.086,3.501,11.348,9.732,13.443,11.569-2.016,1.894-10.301,7.91-11.153,8.395-.427,.218-.966,.789-.778,3.206l-13.655,11.953-82.974,8.201-.658,.065-.737,4.078-19.972,.3,2.881-5.841-.31-4.667-1.88-1.181,1.003-2.776,3.092-.591,5.844,3.912,3.399-2.627-.159-.568c-.533-1.9-1.405-5.187-1.611-6.377,.89-.337,3.662-.76,6.455-.977l.827-.064-.194-8.088Zm-41.301-16.353l-4.046,4.602,1.296,4.224,13.369,8.862,4.702,6.463-1.31,5.525,3.621,6.367,3.709-.287,1.496,.939,.22,3.308-3.069,6.224-2.929,.044-4.075,6.958-.199,6.629-10.561,.996-.133-1.367,6.327-4.42-3.838-6.738-82.622,3.182-.148-.751v-9.503h.011l-.009-41.626-1.544-10.837-.017-.123-3.337-1.864-.392-5.102-4.162-.698,2.523-7.602-5.903-3.44-1.3-4.697-4.019-4.036,.503-1.517-2.647-3.55,69.129-2.056,3.704,3.487,.266,14.387,14.167,12.077,3.733,9.809,4.386-2.642,4.026,2.766-1.175,3.541,.245,2.467Zm-92.076-28.627l4.854,2.828-2.721,8.193,4.826,.808,.358,4.674,3.4,1.899,1.43,9.978v39.725l-135.649-2.599,3.929-69.19,119.573,3.685Zm80.361-40.535l-7.344,.546-1.941,5.521,4.444,5.513-5.499,10.301-2.69,3.323-3.936-3.705-71.078,2.114-.142-.189v-4.763l-1.877-7.354-1.853-9.042-3.206-6.481-1.588-4.788-1.719-2.072,1.072-4.041-3.129-3.014,.346-3.479-2.898-3.638,3.294-8.079-2.763-9.706h3.47l-.002-.222,85.817-2.877,2.902,3.81-1.258,4.293,1.722,9.796,6.359,1.666,10.761,13.121,.229,4.166-7.493,9.281Zm-127.764-28.742l2.546,4.382,3.35,.96,4.611-3.086h4.274l12.265,10.675,.01-.104,1.396,1.345-1.046,3.94,2.044,2.344,1.579,4.735,3.129,6.279,1.839,8.973,1.832,7.073v5.23l.903,1.212,.003,.171h.125l2.836,3.804-.556,1.673,4.456,4.476,.947,3.419-118.702-3.658,.528-22.816-34.4-3.249,3.832-45.912,92.184,4.356,3.386,3.779h6.628Zm-106.44,39.561l.259,.032,.006-.073,32.758,3.094-.525,22.676,.025,.203-3.931,69.235-127.136-13.049,11.646-92.892,86.898,10.773Zm448.081,10.846c2.267-.004,5.017-.034,5.519-.159,.253-.065,.777-.199,3.506-3.557l7.524,.119,4.069,4.67-1.015,3.666-2.476-.096-6.347-4.78-.084-.064-2.815,.436-.141,8.079-5.07,8.317-4.137,.278-2.918,10.393-1.454,.146-2.027-4.074-4.269,2.859-3.488,12.153-3.018,6.614,.764,5.378-2.208,1.996-7.465,3.568-.066,.031-1.559,2.522-4.102,1.373-3.163-1.731-3.827,3.938-3.262-.182-4.711-4.323,.003-.018,.048-.497-.31-.312c-.477-.477-9.688-8.376-13.741-11.85l.688-7.135,5.062-5.553-.597-6.748,2.037-2.535,3.151,2.268,2.268-3.827-.067-4.263,3.668-4.751,3.829-.131,6.908-8.636,1.026-12.493,2.2,11.186,17.983-3.477,4.212,12.262,9.869-11.062Zm-417.845,86.249l.007-.123,135.737,2.6,.005,9.638,5.015,26.048-1.844,16.483v25.051l-12.276-7.042-2.936,3.22-2.854-1.432-12.72,2.497-3.072,2.872-5.077-4.104-3.196,1.066-3.418-2.572-3.042,3.05,.118-1.173h-5.981l-4.067-2.916-4.229,3.998-4.709-7.964-4.72-.316-2.43,1.554-1.875-2.825-11.538-1.029v-3.462l-2.375-1.191-6.493,1.824-6.373-5.537,2.27-46.903-56.763-2.395,.926-10.754,17.909,1.838Zm425.775-91.395c-1.225,1.521-2.568,3.041-2.872,3.293-.46,.057-2.834,.103-5.451,.103h-.393l-8.4,9.415-3.087-8.991,20.321-3.967-.118,.147Zm-325.871-114.662l-4.331,3.119,.119,3.958,7.017,5.917,.453,40.365h-4.019l3.233,11.354-3.452,8.47,3.092,3.882-.171,1.724-10.134-8.82-.07-.062h-5.462l-4.377,2.93-1.893-.542-2.697-4.644h-6.854l-3.354-3.744-92.853-4.386,5.686-68.123,120.13,6.116-.062,2.485Zm121.829,250.374l1.485-6.822,2.681-2.747-.206-5.259,4.192-3.421,.258-3.683,.043,.002,.05-1.453h-.013s.15-5.907,.15-5.907l3.381-5.771,25.319-.381,.76-4.195,82.54-8.158,.13,.147,.188-.164,28.52-2.834,.271,4.067-5.877,6.594-4.547,.19-2.452,3.406-4.017,.367-12.817,11.923-8.999,3.076-2.511,6.018-2.728,2.543-.348,3.667-17.741,2.799-47.779,3.889c-1.132-.355-5.039-.341-20.957,.726-7.434,.497-14.952,1.069-18.977,1.382Zm159.053-145.17l1.209-2.364,.878,4.461-2.087-2.097Zm-2.136,.334l3.339,3.355-1.137,13.822-6.07,7.589-3.849,.133-4.543,5.886,.067,4.382-1.041,1.757-2.945-2.121-3.517,4.379,.591,6.683-4.02,4.409-6.708-4.329-.973-3.32-5.351,5.068-7.682-1.353-1.274,1.924-8.36-2.639-5.036-7.24-6.688,1.007-6.188-60.685,20.885-1.272,19.409,6.163,2.471-4.414,8.095,.264,6.789-7.868,12.514-6.803,3.972,29.848-2.749,5.376Zm-67.056,47.883l-3.35,2.242-5.721,.206-.639,4.273-8.054,11.408-2.738,3.054-3.1-3.289-3.739,1.252-1.962,5.419-1.827-1.553-5.049,1.383-.964,3.556-7.352-3.961-2.188,2.748c-.742-.509-1.943-1.291-2.854-1.683-1.098-.474-2.725,.521-4.855,2.954l1.233-8.816,6.545-11.267,.242-5.521-2.091-2.289-3.123-61.384h4.211l5.479-3.604,35.799-4.38,6.271,61.433-.176,7.818Zm-48.312,7.37l-6.444,11.093-1.611,11.038-.009,.07,.171,7.142c-7.286,.635-7.286,1.682-7.286,2.31,0,.847,.957,4.441,1.561,6.625l-1.471,1.137-5.393-3.611-4.775,.913-1.386,3.83-2.351,.182-2.732-4.803,1.337-5.639-5.268-7.242-13.202-8.816-.825-2.689,3.901-4.439-.284-2.854,1.474-4.436-6.04-4.148-3.558,2.144-3.125-8.212-13.93-11.916-.248-13.39,3.264-4.038,6.165-11.514-4.56-5.655,1.238-3.521,6.958-.517,8.393-10.396-.3-5.408-6.72-8.193,44.674-3.71-.471,4.874-.007,.076,7.803,14.445,3.175,62.419,.017,.314,2.029,2.223-.164,4.314Zm-171.36-209.656l3.778,4.176,1.488,23.434,2.618,10.159,.324,6.868-120.148-6.116,5.692-68.196,105.661,5.186,1.347,6.935-.759,17.556Zm-115.614,61.488l-115.168-14.845-.942,10.441-4.653-5.802-3.422,4.51-22.95,.714-1.49-11.036-4.288-.195c-1.782-4.479-2.678-9.273-2.902-15.508l1.385-2.782-.144-.363c-.558-1.416-1.19-3.02-3.728-4.562l-.681-.413-.475,.639c-.352,.472-.663,.963-.938,1.398-.999,1.578-1.943,3.069-4.894,4.144-2.842-2.717-3.362-5.594-1.682-9.293l3.133-.421-.414-8.596c.195-2.81,1.906-4.654,3.717-6.608,.573-.617,1.165-1.257,1.708-1.929l.883-1.093-1.37-.311c-3.4-.771-6.005-1.42-8.415-2.096l-1.825-10.261-10.006-10.049,4.3-3.598-5.414-10.484,4.965-20.123c59.474,11.814,121.147,20.94,183.336,27.129l-7.628,91.393ZM227.256,48.717l5.072,9.822-4.689,3.924,10.966,11.013,1.92,10.798,.525,.149c2.259,.646,4.623,1.25,7.617,1.944-.233,.257-.468,.511-.701,.762-1.938,2.09-3.941,4.252-4.18,7.777l.337,7.095-2.476,.332-.206,.42c-1.483,3.023-2.862,7.571,2.264,12.133l.375,.334,.477-.155c3.934-1.279,5.143-3.189,6.312-5.038,.128-.203,.256-.406,.389-.607,1.294,.948,1.771,1.877,2.182,2.894l-1.234,2.48,.007,.221c.225,6.782,1.228,11.98,3.251,16.854l.213,.514,3.943,.18,1.505,11.153,25.243-.786,.119-.004,2.571-3.389,4.485,5.593-9.345,58.335-49.41-9.417,.042-.211-50.119-9.84c1.077-4.217,3.699-14.518,6.214-24.657,6.536-26.347,6.304-26.463,5.442-26.896-.468-.235-2.239-1.299-3.662-2.168l-.147-2.976,19.83-25.525-6.887-8.075,1.322-4.314-1.695-4.539,14.505-59.188,12.721,2.391-5.1,20.669Zm-119.733,27.839l.636,.298c.523,.245,5.156,2.401,6.557,2.695,1.708,.359,10.885,.847,12.862,.948,3.3,1.754,7.377,3.852,8.181,3.953,.674,.086,2.563-.021,5.592-.2l.072-.005c2.462-.145,7.041-.414,7.584-.235,.469,.201,1.715,.734,13.78,1.51,7.354,.47,10.293,.616,11.405,.593l30.338,9.141,5.604,6.573-19.155,24.655-.199,.257,.226,4.546,.393,.24c.106,.065,2.52,1.547,3.704,2.219-.529,3.987-7.469,31.791-12.114,49.937l-120.403-31.202-.178-19.548,7.537-10.891,.007-.011c9.924-15.946,15.941-33.851,21.76-51.166,1.356-4.033,2.757-8.2,4.191-12.294l14.06,7.062-2.438,10.926Zm196.882,250.783l.042,.007,.032-.254,109.348,11.222-10.048,116.63-69.461-6.752-.274-.026v5.259l-31.905-3.354-.266-.027-.376,9.44-16.295-1.06,19.203-131.084Zm328.531,145.476l11.672-21.846,.05-.094-5.339-16.618,1.051-5.008-2.126-10.143c.994-8.136,5.748-12.996,10.781-18.142l.605-.62-.266-8.275,4.839-5.588c16.461-1.307,35.604-2.585,39.683-2.398-.156,1.618-.226,5.602-.268,15.088-.047,10.248,.005,22.962,.143,34.882,.218,18.789,.826,50.929,2.461,57.572l-8.292-.231-10.122,5.35-3.49,.406,.53-2.134-4.329-5.977-.734-9.896-36.849,1.062v-7.391Zm200.83-16.166l.246,11.164h-3.572l-2.288-2.921-4.705,2.981,1.438,10.091h-1.716l-1.509-4.927-52.938,3.204-1.773-3.407,.465-.035-4.946-5.295,.785-7.346-.155-.252c-.021-.034-2.111-3.452-3.222-4.582-.262-.875,1.14-6.647,3.042-12.507l.319-5.805,.005-.104-5.926-6.493-13.202-50.18,44.544-7.025-4.882,7.271,11.178,5.211,3.048,4.859,13.357,12.685,4.928,1.445,.345,3.113,11.48,11.152,1.131,3.966,6.333,5.616,1.387,7.159,5.312,.196,.764,1.104-4.351,4.244-4.921,15.416Zm8.552-22.514l-3.901-.144-1.221-6.295-.016-.083-6.396-5.671-1.119-3.925-11.365-11.041-.403-3.654-5.601-1.608-12.872-12.187-3.263-5.202-9.795-4.566,4.886-7.274,9.643-5.437c9.532-1.317,24.128-3.312,26.126-3.524,.768,.633,3.446,3.872,6.226,7.536l.3,.394,22.827-2.462,22.934,15.835-9.015,11.563-.052,.065-.09,6.58-25.406,25.642-2.427,5.458Zm79.999-169.133c-1.177,.162-4.366,.936-9.497,2.3l-8.918-28.789,2.325-2.482,1.495,.125,.744,8.804,.006,.075,13.873,17.383-.028,2.585Zm6.647-53.54l.277-5.14,2.562-1.928-.654-.711c-1.283-1.397-3.625-3.74-4.866-3.74-.632-.026-6.229-1.77-11.528-3.509l.052-.1-6.281-2.178-8.118-10.256-75.886,14.819-.546-3.838,10.338-10.721,2.924-4.857-4.541-8.58,1.793-4.274,15.179-4.065,6.112,2.67,11.17-3.558,9.703-7.448,.066-.051,1.538-5.558-2.829-2.841,1.562-3.14-3.398-.62-.177-2.137,7.037-7.549,.061-.065,.399-5.915,9.689-11.396,25.506-5.989c1.978,7.444,3.015,11.363,3.08,11.633,.087,.48,.274,6.263,.38,10.215l3.605,10.432,3.326,1.737,1.302,14.156,.008,.082,2.639,2.917,1.84,28.479,1.25,9.043-2.586,1.821,.024,3.097h.141s.011,.158,.011,.158l1.314-.093-.435,6.333,10.275-6.586,.004-.003c6.777-4.537,14.642-9.501,16.201-9.986,.464,.341,1.46,1.673,2.379,3.186l-22.35,16.108-9.663,.165,.11-.222Zm18.055-99.46l-1.313,2.858-4.688,3.047v5.582l1.486,1.742-2.004,6.568-1.65,9.938-.023,.146,2.394,1.87c-.311,2.163-.951,6.943-.712,8.052,.189,.883,1.2,2.665,1.891,3.813l-10.719,3.094-2.182-2.411-1.345-14.606-3.556-1.858-3.284-9.385c-.099-3.678-.283-9.879-.419-10.417-.108-.448-2.216-8.389-3.025-11.436l27.341-6.646-.227,5.64-.002,.061,2.037,4.348Zm15.683,23.342l4.253,2.562,2.545,3.952-.145,.626,.214,.049-.179,2.898-3.808,1.528-1.601,4.017-3.548,1.662-16.21,2.613c-.892-1.444-1.875-3.212-2.005-3.814-.137-.63,.303-4.526,.806-7.93l.075-.505-2.378-1.856,1.479-8.947,2.259-7.373-1.691-1.981v-3.988l4.256-2.765,.061-.04,1.864-4.058-2.201-4.695,.303-7.593-.183,.045-.352-5.254,3.327-1.299,13.146,37.273-.287,4.872Zm-27.285,62.958l-1.389-10.038-.719-11.15,25.066-6.224,3.68,14.602c-3.304,.933-12.35,3.873-17.531,5.57l-.122,.04-10.823,9.53-.865,.062-.004-.486,2.707-1.905Zm8.248-41.226l.006,.038,17.163-2.767,4.427-2.038,.091-.041,1.579-3.963,2.271-.912v2.756l3.79,.569,.117,1.883-3.758,3.397,.485,5.092,5.362,.6c2.402,3.507,4.491,6.732,5.089,7.836l-4.914,7.611-9.512-9.909-32.666,8.111-.966-14.964,11.436-3.3Zm42.592,13.853l4.214-2.951-5.027-5.77,2.925-1.017,3.28,6.423-.299,2.859-7.725,4.229-2.457,.52-.376-4.719c.54,.515,1.886,.875,5.31,.444l.155-.02Z" fill="#fff"/>
    <path d="M251.233,629.318l-.265-.231-5.552,.268-7.184-6.468-.531-3.205-2.03-1.738-14.299-16.972,.304-3.651-8.573-1.231-.137-.021-4.508,5.327-3.301-.413-1.659-3.333-4.087,.548-5.78-7.651h-5.28l-.633,1.691-2.049-1.277c-.049-6.778-.785-74.141-1.101-102.949l-.027-2.418-11.807-5.724-5.981,4.132-14.889-7.661-.117-.06-5.927-.39-7.782-6.7-.056-.048-8.088-1.107-4.053-6.512-8.348,6.787-6.575-.778-1.533,2.694h-3.552l-10.873,9.036-12.333,.375-.11,.004-5.604,6.491,7.798,9.397,.74,6.312,.009,.07,6.33,7.951,5.265,1.32-1.175,2.595-5.298-.663-5.387-1.014-1.143-7.274-9.034,.004-8.132,1.542-6.029,4.725,1.133,2.271,4.1,3.121-1.575,3.13,1.044,7.032,10.979,3.854,5.024,3.081,3.828-.96,1.597-2.064,1.392,.699-2.244,2.028,2.746,4.377-3.026,4.805-5.91-2.322-5.896,5.115-2.96-.638-1.997-2.676-6.528,6.556-5.036-.3v4.527l-3.789,.691-1.364,4.793,4.839,4.051-.564,4.828,2.737,.635-2.652,2.868v6.243l6.031,7.265,5.909-4.448,.933,4.688-3.389,2.094,.632,6.354,5.909,2.812,4.459-2.771-.39,3.918,4.894,5.835,4.518-1.983,4.354,1.591-3.48,4.369-2.933,6.621-7.11,5.102-8.244,2.669-.065,.021-3.831,4.358-12.102-1.319-3.53,2.997-10.91,1.311-5.36,1.78-.842,3.801,10.608,1.48,.055,.007,9.585-2.949,5.117-.27,2.005-1.222,3.296,1.275,6.154-1.612,4.615,1.091,10.172-5.53,14.363-9.965,4.65-.272,2.894-3.684h3.424l6.438-7.657-1.9-4.362,3.027-5.61,1.901-.241,5.799-4.365,.268-3.498,5.215-4.607,.392,1.965-3.33,2.572-.252,4.287-4.08,1.091,.943,9.473,7.166,.315,7.696-5.865h7.176l.278-10.309,2.843-2.648,6.763,1.405,1.134,3.038-7.769,3.523-.135,.305c-1.305,2.948-1.7,4.748-1.208,5.504,.212,.324,.558,.511,.949,.511,1.032,0,6.708-3.099,11.348-5.733l6.7,4.52,4.898,1.491,10.699-.854,2.197,4.349,6.16-.544,5.781,6.664,.099,.113,3.729-.871,8.412,8.977,4.78-.321,2.186-2.853,4.083,5.466-3.674,.924,.316,4.452,7.361,14.642,4.913-6.756,.807,2.159-2.08,1.79,7.437,8.021c-.706,2.62-1.289,5.913-.178,7.029,.166,.166,.344,.352,.532,.546,1.187,1.236,2.532,2.637,3.797,2.637,1.189,0,4.618-2.145,6.037-3.067l.263-.172,1.436-4.566,3.074,.773,2.203,3.874,5.496-.348,.098-.708c1.087-7.822,1.299-12.244,.629-13.143-.807-1.08-5.762-5.398-6.747-6.253Zm1.504,18.635l-2.032-3.573-5.4-1.357-1.742,5.541c-2.427,1.556-4.448,2.606-4.819,2.614-.521,0-1.933-1.471-2.536-2.099-.196-.204-.382-.397-.554-.569-.244-.249-.144-2.639,.752-5.792l.135-.473-6.867-7.407,1.628-1.401-2.373-6.353-5.147,7.075-5.894-11.6-.2-2.812,4.798-1.207-7.039-9.423-3.111,4.06-3.163,.212-8.537-9.107-3.684,.861-5.774-6.656-5.869,.519-2.192-4.339-11.546,.922-4.217-1.248-7.488-5.052-.473,.27c-3.747,2.136-8.394,4.66-10.277,5.503,.18-.741,.576-1.874,1.051-2.983l8.647-3.922-2.043-5.474-8.595-1.786-4.042,3.768-.252,9.338h-6.064l-7.662,5.838-5.017-.22-.646-6.484,3.863-1.032,.279-4.756,3.557-2.746-1.198-6.016-8.027,7.094-.261,3.418-4.795,3.609-2.334,.296-3.858,7.151,1.808,4.149-5.215,6.202h-3.46l-2.932,3.732-4.285,.252-.07,.005-14.686,10.194-9.503,5.16-4.389-1.038-6.029,1.579-3.587-1.387-2.298,1.444-4.864,.263-9.499,2.897-8.403-1.173,.218-.984,4.186-1.407,11.058-1.323,.263-.03,3.358-2.853,12.127,1.322,.129,.015,4.114-4.679,7.981-2.585,7.851-5.582,2.963-6.763,4.923-6.179-7.202-2.632-.094-.035-3.96,1.737-3.578-4.265,.669-6.719-6.665,4.143-4.153-1.978-.426-4.283,3.494-2.158-1.715-8.611-6.801,5.122-4.561-5.495v-4.927l4.233-4.577-4.148-.963,.493-4.213-4.694-3.928,.755-2.654,4.154-.756v-4.131l3.969,.235,5.655-5.677,1.178,1.576,4.456,.96,5.756-4.994,6.272,2.467,4.386-6.963-2.55-4.064,3.052-2.759-4.964-2.492-2.108,2.723-2.528,.636-4.501-2.755-10.214-3.606-.808-5.438,1.982-3.942-4.912-3.699-.34-.682,4.517-3.566,7.549-1.446h7.432l1.103,7.015,6.653,1.252,6.631,.831,2.572-5.679-6.723-1.686-5.651-7.098-.75-6.401-7.183-8.657,4.133-4.788,12.189-.37,.086-.003,10.85-9.017h3.938l1.463-2.571,6.157,.729,7.382-6,3.438,5.521,8.391,1.148,7.891,6.795,6.103,.38,15.658,8.059,6.003-4.149,9.915,4.806c.065,5.982,1.117,101.886,1.117,104.753v.485l4.685,2.922,.958-2.559h3.195l5.871,7.772,3.858-.519,1.519,3.052,5.173,.647,4.495-5.31,6.12,.879-.227,2.728,14.825,17.592,1.685,1.457,.528,3.183,8.174,7.36,5.57-.268c2.755,2.396,5.754,5.114,6.184,5.677,.297,.624-.07,5.634-.82,11.219l-2.977,.188Z" fill="#fff"/>
    <path d="M119.286,605.363l-6.067,6.093-.672,2.924-3.422-.459-8.442,3.634,3.537,8.195-4.285,3.729,6.583,5.218,9.847-14.007,4.715-.629-2.081-5.081,4.7-5.554-4.413-4.063Zm-16.613,24.054l3.66-3.187-3.349-7.76,6.388-2.751,4.522,.607,.917-3.99,4.527-4.546,1.94,1.786-4.303,5.083,1.625,3.966-3.228,.432-9.221,13.116-3.479-2.757Z" fill="#fff"/>
    <path d="M46.001,568.037l-1.442-3.544-5.226,5.06,5.201,6.177,.473-.061c.304-.04,1.204,.002,1.998,.039l.067,.003c1.106,.051,1.775,.071,2.31,.071,1.395,0,1.977-.149,2.308-.591,.085-.115,.467-.432,.752-.668,.993-.821,1.654-1.41,1.787-2.079,.149-.744-.055-2.635-.121-3.197l-.04-.338-4.676-4.026-2.304,3.087-1.087,.067Zm6.407,1.751c.112,1.071,.16,2.048,.121,2.262-.08,.197-.914,.888-1.2,1.126-.364,.3-.682,.562-.903,.804-.545,.109-2.444,.021-3.308-.019-.672-.031-1.253-.058-1.699-.058-.045,0-.09,0-.133,0l-3.563-4.23,2.191-2.121,.939,2.309,3.152-.196,1.667-2.231,2.735,2.354Z" fill="#fff"/>
    <path d="M47.885,537.631l3.187-4.706-5.065-4.804-.411-4.677-5.253-2.636-6.189,1.91,.514,4.815,13.218,10.097Zm-11.558-11.032l-.281-2.634,4.14-1.277,3.751,1.884,.384,4.364,4.469,4.237-1.315,1.942-11.147-8.517Z" fill="#fff"/>
    <path d="M30.081,631.808h0c-.751-.25-5.553-1.598-6.529-1.871l-.263-.074-8.82,3.049-.358,2.003-2.949-2.807-3.908,.609-7.253,2.368,.836,8.412,12.348-3.781,.22-.852-.043,.238,3.549,2.967,.643,.662,.537-.684c.494-.397,5.77-2.475,12.011-4.729l.453-.164,.104-.471c.864-3.904,.084-4.651-.578-4.875Zm-1.035,4.03c-6.071,2.2-9.925,3.718-11.462,4.513l-2.321-1.941,.748-4.18,7.333-2.535c3.84,1.079,5.353,1.519,5.926,1.692,.05,.398-.015,1.352-.223,2.451Zm-26.68,5.359l-.486-4.889,5.73-1.882,2.967-.459,1.832,1.743-.675,2.617-9.369,2.869Z" fill="#fff"/>
    <path d="M422.422,638.947l-11.085-5.964-2.552-.03-5.745-5.385-3.34,1.116v9.345l-5.065,6.263,.329,.527c2.835,4.556,5.234,9.174,5.138,9.856-.384,1.542-.088,8.936-.025,10.402l.018,.4,6.137,4.846,11.192-10.081,3.975-.361,9.072-5.515,.091-.055,.937-4.228-9.075-8.732v-2.405Zm-20.615,25.655c-.167-4.089-.224-8.638-.008-9.503,.368-1.479-2.504-6.587-5.022-10.675l4.673-5.776v-8.704l1.155-.386,5.488,5.145h2.747l9.832,5.289v2.104l8.904,8.568-.563,2.542-8.122,4.963-4.207,.384-10.528,9.481-4.349-3.433Z" fill="#fff"/>
    <path d="M398.233,614.765l-6.991-6.196-.071-.062h-4.033l-1.468,1.29-1.611-.123-2.504-4.256-3.284,.508-2.872,2.644,2.49,6.822,4.001-.363c.401,2.046,.748,3.481,1.051,4.501-.14-.161-.31-.296-.51-.397-.979-.491-2.008-1.519-2.019-1.53l-.601-.604-3.744,3.528-.052,.048-.064,.238c-.238,.875-.417,2.055,.082,2.706,.23,.302,.566,.468,.948,.468,.796,0,4.907-.377,4.948-.381l.45-.041,.227-.391c.203-.35,.761-1.418,.752-2.422,.472,1.164,.816,1.258,1.084,1.324,.107,.027,.639,.098,1.253,.098,.832,0,1.427-.127,1.771-.378l9.094-2.474,1.672-4.557Zm-16.941,7.141c-.816,.073-2.815,.248-3.818,.309,.016-.208,.055-.467,.11-.713l2.215-2.088c.479,.412,1.136,.919,1.812,1.265,.043,.216-.088,.719-.32,1.228Zm-.644-14.576l2.365,4.02,3.257,.249,1.527-1.342h2.709l5.672,5.026-.95,2.588-9.389,2.555c-.28,.013-.542,.01-.74-.01-.376-.758-1.091-3.576-1.64-6.492l-.147-.782-4.242,.385-1.629-4.459,1.621-1.493,1.585-.244Z" fill="#fff"/>
    <path d="M375.689,607.874l2.185-5.761h-6.272l-.182-1.995-.724-.067c-.08-.008-8.062-.758-8.882-.758-.527,0-1.41,0-3.088,5.9l-.287,1.009,1.044,.102s13.667,1.316,15.538,1.504l.668,.066Zm-14.979-3.211c.52-1.664,1.075-3.104,1.39-3.606,1.067,.066,4.545,.375,7.71,.669l.194,2.138h5.335l-.811,2.137c-2.454-.24-9.423-.912-12.881-1.246l-.938-.091Z" fill="#fff"/>
    <path d="M340.573,585.285c-2.008,2.176-4.151,4.222-4.798,4.586-.926-.159-2.797-.167-3.172-.167h-1.583l6.696,10.663,4.511-2.266,1.703,2.564h.47c.982,0,6.007-.371,6.056-.375l1.509-.11-10.643-15.706-.749,.811Zm8.243,13.369c-1.02,.071-2.969,.205-3.956,.248l-2.032-3.061-4.476,2.248-4.144-6.601c.663,.029,1.159,.074,1.368,.126,.44,.105,1.176,.282,5.532-4.337l7.708,11.376Z" fill="#fff"/>
    <path d="M295.436,569.909l-5.677,5.071,.249,3.975,11.477,4.814,3.95-6.169-1.1-6.413-8.898-1.278Zm-3.75,7.853l-.127-2.043,4.435-3.962,6.831,.981,.771,4.491-2.791,4.358-9.119-3.826Z" fill="#fff"/>
    <path d="M276.464,580.814l.259,4.125,3.614,.563,4.953-5.879-3.592-3.609-5.234,4.8Zm1.917,2.613l-.118-1.889,3.38-3.099,1.276,1.281-3.286,3.9-1.252-.194Z" fill="#fff"/>
    <path d="M373.849,610.248l-4.413-2.35-3.873,.777,.258,3.371,4.357,7.053,6.733-4.83-3.063-4.021Zm-4.678-.512l3.487,1.835,1.771,2.327-3.752,2.691-3.139-5.043-.111-1.461,1.744-.35Z" fill="#fff"/>
  </g>
  <g clip-path="url(#b)">
    <g>
      <circle cx="1007.515" cy="7.978" r="2" fill="#9aa51e"/>
      <circle cx="987.525" cy="13.656" r="2" fill="#9aa51e"/>
      <circle cx="1001.696" cy="27.826" r="2" fill="#9aa51e"/>
      <circle cx="973.355" cy="-.515" r="2" fill="#9aa51e"/>
      <path d="M1017.832,41.6c-.029-.127-.071-.254-.12-.374-.05-.12-.106-.233-.184-.339-.36-.559-1.003-.891-1.661-.899-.523,0-1.04,.22-1.415,.595-.184,.184-.332,.403-.431,.643-.099,.241-.148,.502-.155,.763,0,.269,.057,.523,.155,.764,.106,.247,.248,.459,.439,.65,.092,.092,.191,.177,.297,.255,.113,.07,.226,.127,.347,.177,.12,.049,.248,.091,.375,.119,.127,.029,.261,.036,.389,.036,.268,0,.53-.049,.77-.148s.46-.248,.643-.431c.375-.375,.588-.898,.588-1.422,0-.127-.014-.254-.036-.389Z" fill="#9aa51e"/>
      <circle cx="997.418" cy="46.416" r="2" fill="#9aa51e"/>
      <circle cx="983.247" cy="32.246" r="2" fill="#9aa51e"/>
      <circle cx="969.077" cy="18.075" r="2" fill="#9aa51e"/>
      <circle cx="954.906" cy="3.905" r="2" fill="#9aa51e"/>
      <path d="M1012.698,58.925c-.113-.071-.226-.142-.346-.191s-.248-.078-.375-.106c-.127-.029-.254-.043-.389-.036-.53-.007-1.039,.205-1.414,.58-.382,.382-.587,.884-.579,1.414-.008,.531,.197,1.033,.579,1.415,.184,.184,.404,.332,.644,.431,.247,.106,.509,.156,.771,.148,.134,.007,.261-.007,.389-.035,.134-.021,.254-.057,.375-.106,.12-.05,.24-.113,.346-.191,.106-.064,.212-.155,.304-.247,.368-.368,.587-.884,.58-1.414,.007-.657-.332-1.295-.884-1.662Z" fill="#9aa51e"/>
      <circle cx="963.258" cy="37.923" r="2" fill="#9aa51e"/>
      <circle cx="949.087" cy="23.753" r="2" fill="#9aa51e"/>
      <circle cx="934.917" cy="9.583" r="2" fill="#9aa51e"/>
      <circle cx="977.428" cy="52.094" r="2" fill="#9aa51e"/>
      <path d="M993.557,65.875c-.021-.134-.057-.254-.113-.381-.05-.12-.106-.233-.184-.34-.368-.551-1.004-.891-1.655-.891-.142,0-.269,.014-.396,.043-.134,.021-.254,.056-.375,.106-.12,.05-.24,.113-.346,.191-.113,.071-.212,.155-.304,.247-.184,.184-.332,.404-.431,.643-.099,.241-.149,.503-.148,.771-.007,.53,.198,1.032,.58,1.414,.191,.191,.403,.332,.643,.432,.248,.106,.509,.155,.771,.148,.268,0,.53-.05,.771-.149,.24-.098,.46-.248,.643-.431,.374-.374,.587-.884,.587-1.421,0-.127-.014-.254-.042-.382Z" fill="#9aa51e"/>
      <circle cx="958.98" cy="56.513" r="2" fill="#9aa51e"/>
      <circle cx="973.15" cy="70.684" r="2" fill="#9aa51e"/>
      <circle cx="916.468" cy="14.002" r="2" fill="#9aa51e"/>
      <circle cx="944.809" cy="42.343" r="2" fill="#9aa51e"/>
      <circle cx="930.639" cy="28.172" r="2" fill="#9aa51e"/>
      <circle cx="902.298" cy="-.169" r="2" fill="#9aa51e"/>
      <path d="M989.166,85.625c.049-.12,.085-.255,.113-.382,.028-.128,.042-.255,.036-.389,.007-.657-.333-1.294-.884-1.662-.113-.07-.226-.127-.354-.184-.12-.05-.241-.085-.367-.113-.128-.028-.262-.035-.389-.036-.53-.007-1.04,.206-1.414,.58-.191,.191-.34,.41-.439,.651s-.148,.502-.148,.77c0,.255,.049,.516,.148,.757,.106,.247,.248,.459,.439,.65,.092,.092,.191,.177,.304,.248,.106,.078,.226,.142,.339,.184,.127,.057,.248,.092,.375,.12,.135,.021,.261,.036,.389,.036,.537,0,1.039-.205,1.421-.587,.092-.092,.176-.191,.247-.304s.134-.219,.184-.339Z" fill="#9aa51e"/>
      <circle cx="953.16" cy="76.362" r="2" fill="#9aa51e"/>
      <circle cx="910.649" cy="33.851" r="2" fill="#9aa51e"/>
      <circle cx="938.99" cy="62.191" r="2" fill="#9aa51e"/>
      <circle cx="924.819" cy="48.021" r="2" fill="#9aa51e"/>
      <circle cx="882.308" cy="5.51" r="2" fill="#9aa51e"/>
      <circle cx="896.479" cy="19.68" r="2" fill="#9aa51e"/>
      <path d="M969.289,90.143c-.021-.134-.064-.261-.113-.381-.049-.121-.106-.234-.184-.34-.141-.227-.325-.411-.552-.552-.106-.078-.226-.142-.347-.191-.12-.05-.24-.085-.374-.106-.127-.028-.255-.042-.396-.042-.127,0-.255,.015-.382,.042-.135,.021-.255,.057-.375,.106-.12,.05-.24,.113-.347,.192-.113,.071-.212,.155-.304,.247-.375,.375-.587,.884-.587,1.407,0,.268,.05,.53,.149,.77,.106,.248,.247,.46,.438,.651s.403,.332,.644,.431c.247,.106,.509,.155,.77,.149,.53,.007,1.039-.205,1.414-.58,.368-.368,.587-.884,.58-1.414,.007-.134-.007-.261-.036-.389Z" fill="#9aa51e"/>
      <path d="M936.119,79.374c-.778-.778-2.044-.784-2.822-.007-.785,.785-.785,2.057-.007,2.835s2.05,.778,2.835-.007c.778-.778,.771-2.044-.007-2.822Z" fill="#9aa51e"/>
      <path d="M865.267,8.522c-.778-.778-2.044-.784-2.822-.007-.785,.785-.785,2.057-.007,2.835,.785,.785,2.05,.778,2.835-.007,.778-.778,.778-2.037-.007-2.822Z" fill="#9aa51e"/>
      <path d="M921.949,65.204c-.785-.785-2.044-.784-2.822-.007-.785,.785-.792,2.051-.007,2.835s2.05,.778,2.835-.007c.778-.778,.778-2.037-.007-2.822Z" fill="#9aa51e"/>
      <path d="M893.608,36.863c-.778-.778-2.044-.784-2.822-.007-.785,.785-.784,2.058-.007,2.835,.785,.785,2.05,.778,2.835-.007,.778-.778,.778-2.036-.007-2.822Z" fill="#9aa51e"/>
      <path d="M907.778,51.033c-.778-.778-2.044-.784-2.822-.007-.785,.785-.784,2.058-.007,2.835,.785,.785,2.05,.778,2.835-.007,.778-.778,.778-2.036-.007-2.822Z" fill="#9aa51e"/>
      <path d="M879.437,22.692c-.778-.778-2.044-.784-2.822-.007-.785,.785-.784,2.058-.007,2.835,.785,.785,2.05,.778,2.835-.007,.778-.778,.778-2.036-.007-2.822Z" fill="#9aa51e"/>
      <path d="M950.289,93.544c-.785-.785-2.044-.784-2.822-.007-.785,.785-.792,2.051-.007,2.835,.778,.778,2.05,.778,2.835-.007,.778-.778,.771-2.044-.007-2.822Z" fill="#9aa51e"/>
      <path d="M964.898,109.893c.049-.12,.085-.255,.114-.382,.028-.127,.042-.255,.035-.389,0-1.047-.947-1.994-2.001-2.001-.127,0-.255,.015-.382,.042-.135,.021-.262,.064-.382,.114-.12,.05-.24,.113-.339,.184-.113,.07-.212,.155-.304,.247-.099,.099-.184,.197-.255,.311-.07,.098-.134,.219-.183,.339-.049,.12-.092,.248-.114,.368-.021,.134-.036,.261-.042,.396,0,.537,.212,1.032,.594,1.414,.092,.092,.191,.177,.304,.248,.106,.078,.226,.142,.339,.183,.127,.057,.247,.093,.375,.12,.128,.028,.262,.035,.389,.036,.141,0,.269-.015,.396-.042,.127-.015,.255-.057,.375-.107,.119-.049,.24-.113,.339-.183,.114-.071,.213-.156,.311-.255,.092-.092,.176-.191,.247-.304,.064-.106,.134-.219,.184-.339Z" fill="#9aa51e"/>
      <circle cx="886.381" cy="58.119" r="2" fill="#9aa51e"/>
      <circle cx="928.892" cy="100.63" r="2" fill="#9aa51e"/>
      <circle cx="843.87" cy="15.608" r="2" fill="#9aa51e"/>
      <circle cx="900.551" cy="72.289" r="2" fill="#9aa51e"/>
      <circle cx="914.721" cy="86.46" r="2" fill="#9aa51e"/>
      <circle cx="829.699" cy="1.437" r="2" fill="#9aa51e"/>
      <circle cx="872.21" cy="43.949" r="2" fill="#9aa51e"/>
      <circle cx="858.04" cy="29.778" r="2" fill="#9aa51e"/>
      <path d="M944.908,115.571c.057-.127,.084-.254,.113-.382s.035-.262,.035-.389c.008-.135-.007-.262-.036-.389-.028-.127-.063-.262-.113-.382-.05-.12-.113-.226-.184-.339-.148-.22-.339-.411-.552-.552-.113-.071-.226-.142-.346-.191s-.248-.078-.375-.106c-.127-.029-.254-.043-.396-.042-.127,0-.254,.014-.382,.042-.135,.021-.254,.056-.382,.113-.12,.05-.233,.106-.339,.184-.113,.071-.212,.155-.305,.248-.092,.092-.183,.198-.247,.304-.078,.106-.141,.226-.191,.346-.049,.12-.085,.241-.113,.368-.021,.135-.035,.262-.035,.389,0,.538,.204,1.04,.586,1.422,.375,.375,.884,.587,1.415,.579,.53,.008,1.032-.197,1.414-.579,.093-.093,.177-.191,.248-.305,.071-.113,.134-.219,.184-.339Z" fill="#9aa51e"/>
      <path d="M911.851,103.642c-.785-.785-2.043-.785-2.828,0-.778,.778-.778,2.037,.007,2.822,.778,.778,2.044,.784,2.822,.007,.785-.785,.778-2.051,0-2.828Z" fill="#9aa51e"/>
      <path d="M883.51,75.301c-.778-.778-2.043-.785-2.828,0-.778,.778-.771,2.044,.007,2.822s2.044,.784,2.822,.007c.785-.785,.778-2.051,0-2.828Z" fill="#9aa51e"/>
      <path d="M926.021,117.813c-.785-.785-2.043-.785-2.828,0-.778,.778-.778,2.037,.007,2.822,.778,.778,2.044,.784,2.822,.007,.785-.785,.778-2.051,0-2.828Z" fill="#9aa51e"/>
      <path d="M855.169,46.96c-.778-.778-2.043-.785-2.828,0-.778,.778-.771,2.044,.007,2.822,.785,.785,2.044,.784,2.822,.007,.785-.785,.785-2.043,0-2.828Z" fill="#9aa51e"/>
      <path d="M809.843,7.278c.778,.778,2.037,.778,2.815,0,.785-.785,.785-2.044,.007-2.822-.785-.785-2.05-.792-2.835-.007-.778,.778-.771,2.044,.014,2.828Z" fill="#9aa51e"/>
      <path d="M826.829,18.62c-.778-.778-2.043-.785-2.828,0-.778,.778-.771,2.044,.007,2.822,.785,.785,2.044,.784,2.822,.007,.785-.785,.785-2.044,0-2.828Z" fill="#9aa51e"/>
      <path d="M897.68,89.472c-.778-.778-2.043-.785-2.828,0-.778,.778-.771,2.044,.007,2.822s2.044,.784,2.822,.007c.785-.785,.778-2.051,0-2.828Z" fill="#9aa51e"/>
      <path d="M840.999,32.79c-.778-.778-2.043-.785-2.828,0-.778,.778-.771,2.044,.007,2.822,.785,.785,2.044,.784,2.822,.007,.785-.785,.785-2.044,0-2.828Z" fill="#9aa51e"/>
      <path d="M869.34,61.131c-.778-.778-2.043-.785-2.828,0-.778,.778-.771,2.044,.007,2.822,.785,.785,2.044,.784,2.822,.007,.785-.785,.785-2.043,0-2.828Z" fill="#9aa51e"/>
      <path d="M940.743,133.001c-.028-.127-.064-.247-.12-.375-.049-.12-.106-.233-.177-.346-.375-.545-1.011-.884-1.669-.891-.523,0-1.039,.219-1.407,.587-.191,.191-.339,.409-.438,.65s-.148,.502-.156,.764c0,.537,.205,1.039,.587,1.421s.884,.587,1.414,.58c.269,0,.53-.05,.771-.149s.46-.248,.65-.438c.368-.368,.587-.884,.58-1.414,0-.127-.007-.262-.036-.389Z" fill="#9aa51e"/>
      <circle cx="791.261" cy="11.534" r="2" fill="#9aa51e"/>
      <circle cx="847.943" cy="68.216" r="2" fill="#9aa51e"/>
      <circle cx="890.454" cy="110.727" r="2" fill="#9aa51e"/>
      <circle cx="805.432" cy="25.705" r="2" fill="#9aa51e"/>
      <circle cx="833.773" cy="54.046" r="2" fill="#9aa51e"/>
      <circle cx="904.624" cy="124.897" r="2" fill="#9aa51e"/>
      <circle cx="876.284" cy="96.557" r="2" fill="#9aa51e"/>
      <circle cx="862.113" cy="82.386" r="2" fill="#9aa51e"/>
      <circle cx="819.602" cy="39.875" r="2" fill="#9aa51e"/>
      <path d="M920.64,139.839c.05-.12,.085-.255,.113-.382,.029-.127,.042-.254,.036-.389,.007-.657-.332-1.294-.884-1.662-.113-.07-.226-.141-.354-.184-.12-.05-.241-.085-.367-.113-.127-.028-.262-.035-.396-.042-.128,0-.255,.015-.382,.043-.134,.021-.261,.063-.382,.113-.12,.05-.233,.106-.339,.184-.113,.071-.212,.155-.304,.247-.382,.382-.587,.884-.594,1.414,.007,.262,.057,.523,.155,.764,.106,.247,.248,.459,.439,.65,.092,.092,.191,.177,.304,.248,.106,.078,.219,.135,.339,.184,.12,.049,.248,.091,.375,.119,.135,.021,.262,.036,.389,.036,.537,0,1.039-.205,1.421-.587,.092-.092,.177-.191,.247-.304,.071-.113,.134-.219,.184-.339Z" fill="#9aa51e"/>
      <circle cx="758.642" cy="1.798" r="2" fill="#9aa51e"/>
      <circle cx="815.317" cy="58.473" r="2" fill="#9aa51e"/>
      <circle cx="843.657" cy="86.813" r="2" fill="#9aa51e"/>
      <path d="M774.22,14.547c-.778-.778-2.036-.778-2.822,.007-.778,.778-.785,2.044-.007,2.822,.785,.785,2.058,.784,2.835,.007,.785-.785,.778-2.051-.007-2.835Z" fill="#9aa51e"/>
      <circle cx="829.487" cy="72.643" r="2" fill="#9aa51e"/>
      <path d="M785.568,31.553c.778,.778,2.044,.771,2.822-.007,.785-.785,.785-2.044,.007-2.822-.785-.785-2.05-.792-2.835-.007-.778,.778-.778,2.051,.007,2.835Z" fill="#9aa51e"/>
      <path d="M802.56,42.888c-.778-.778-2.036-.778-2.822,.007-.778,.778-.785,2.044-.007,2.822,.785,.785,2.051,.778,2.828,0,.785-.785,.785-2.044,0-2.828Z" fill="#9aa51e"/>
      <circle cx="900.339" cy="143.495" r="2" fill="#9aa51e"/>
      <circle cx="871.998" cy="115.154" r="2" fill="#9aa51e"/>
      <circle cx="886.169" cy="129.324" r="2" fill="#9aa51e"/>
      <circle cx="857.828" cy="100.984" r="2" fill="#9aa51e"/>
      <path d="M916.468,157.276c-.021-.134-.056-.255-.113-.382-.049-.12-.106-.233-.184-.339-.148-.22-.332-.404-.552-.552-.106-.078-.219-.135-.346-.191-.12-.05-.241-.085-.375-.106-.127-.029-.254-.043-.382-.043-.142,0-.269,.015-.396,.043-.135,.021-.254,.057-.375,.106-.12,.05-.24,.113-.346,.191-.113,.07-.212,.155-.305,.248-.184,.184-.332,.403-.431,.643-.106,.248-.148,.502-.148,.77-.008,.531,.197,1.033,.579,1.415,.375,.375,.884,.587,1.415,.579,.268,0,.53-.049,.77-.148s.46-.248,.643-.431c.375-.375,.587-.884,.588-1.422,0-.127-.014-.254-.043-.382Z" fill="#9aa51e"/>
      <circle cx="795.334" cy="64.143" r="2" fill="#9aa51e"/>
      <circle cx="738.659" cy="7.469" r="2" fill="#9aa51e"/>
      <circle cx="809.504" cy="78.314" r="2" fill="#9aa51e"/>
      <circle cx="823.675" cy="92.484" r="2" fill="#9aa51e"/>
      <circle cx="852.015" cy="120.825" r="2" fill="#9aa51e"/>
      <circle cx="766.993" cy="35.802" r="2" fill="#9aa51e"/>
      <path d="M754.237,20.218c-.778-.778-2.044-.77-2.821,.007-.785,.785-.785,2.043-.007,2.821,.785,.785,2.051,.792,2.836,.007,.778-.778,.778-2.051-.007-2.836Z" fill="#9aa51e"/>
      <circle cx="866.186" cy="134.995" r="2" fill="#9aa51e"/>
      <circle cx="880.356" cy="149.166" r="2" fill="#9aa51e"/>
      <circle cx="837.845" cy="106.655" r="2" fill="#9aa51e"/>
      <circle cx="781.164" cy="49.973" r="2" fill="#9aa51e"/>
      <path d="M894.52,161.335c-.523,0-1.039,.219-1.414,.594s-.58,.877-.587,1.407c0,.269,.057,.523,.156,.763,.106,.248,.24,.467,.431,.658,.184,.184,.41,.326,.651,.424,.247,.106,.494,.156,.763,.156,.537,0,1.039-.205,1.414-.58s.594-.891,.587-1.421c.007-1.054-.947-1.994-2.001-2.001Z" fill="#9aa51e"/>
      <circle cx="833.56" cy="125.251" r="2" fill="#9aa51e"/>
      <circle cx="876.072" cy="167.762" r="2" fill="#9aa51e"/>
      <circle cx="861.901" cy="153.592" r="2" fill="#9aa51e"/>
      <circle cx="819.39" cy="111.081" r="2" fill="#9aa51e"/>
      <circle cx="847.731" cy="139.421" r="2" fill="#9aa51e"/>
      <circle cx="748.545" cy="40.236" r="2" fill="#9aa51e"/>
      <circle cx="734.374" cy="26.065" r="2" fill="#9aa51e"/>
      <circle cx="720.204" cy="11.895" r="2" fill="#9aa51e"/>
      <circle cx="805.219" cy="96.91" r="2" fill="#9aa51e"/>
      <circle cx="776.879" cy="68.57" r="2" fill="#9aa51e"/>
      <path d="M764.123,52.985c-.778-.778-2.044-.784-2.828,0-.778,.778-.778,2.051,0,2.828,.785,.785,2.057,.785,2.835,.007,.784-.784,.778-2.051-.007-2.835Z" fill="#9aa51e"/>
      <circle cx="791.049" cy="82.74" r="2" fill="#9aa51e"/>
      <path d="M891.352,180.271c-.106-.077-.226-.141-.347-.191s-.24-.085-.374-.106c-.128-.028-.255-.042-.389-.036-.135-.007-.262,.008-.389,.036-.134,.021-.254,.057-.375,.106-.127,.057-.24,.113-.346,.191-.113,.07-.212,.155-.304,.247-.375,.375-.587,.884-.58,1.414-.007,.53,.205,1.04,.58,1.414s.877,.58,1.414,.58c.53,.007,1.039-.205,1.414-.58s.587-.884,.58-1.414c.007-.657-.333-1.294-.884-1.662Z" fill="#9aa51e"/>
      <circle cx="827.74" cy="145.1" r="2" fill="#9aa51e"/>
      <circle cx="756.889" cy="74.248" r="2" fill="#9aa51e"/>
      <circle cx="813.57" cy="130.93" r="2" fill="#9aa51e"/>
      <circle cx="771.059" cy="88.418" r="2" fill="#9aa51e"/>
      <circle cx="785.229" cy="102.589" r="2" fill="#9aa51e"/>
      <circle cx="686.044" cy="3.403" r="2" fill="#9aa51e"/>
      <circle cx="841.911" cy="159.27" r="2" fill="#9aa51e"/>
      <circle cx="728.555" cy="45.914" r="2" fill="#9aa51e"/>
      <circle cx="799.4" cy="116.759" r="2" fill="#9aa51e"/>
      <circle cx="856.081" cy="173.441" r="2" fill="#9aa51e"/>
      <circle cx="700.214" cy="17.573" r="2" fill="#9aa51e"/>
      <circle cx="714.384" cy="31.744" r="2" fill="#9aa51e"/>
      <path d="M744.139,58.67c-.785-.785-2.05-.792-2.835-.007-.778,.778-.778,2.051,.007,2.835,.778,.778,2.051,.778,2.828,0,.785-.785,.778-2.051,0-2.828Z" fill="#9aa51e"/>
      <path d="M871.369,185.942c-.113-.071-.233-.135-.353-.184-.121-.049-.241-.085-.368-.113-.134-.021-.262-.035-.396-.042-.127,0-.262,.021-.388,.049-.128,.015-.254,.056-.375,.106-.12,.05-.24,.113-.339,.184-.113,.071-.22,.163-.311,.255s-.176,.191-.247,.304c-.078,.106-.134,.219-.184,.339-.049,.12-.092,.248-.113,.368-.021,.135-.043,.269-.043,.396,0,.537,.212,1.032,.594,1.414,.191,.191,.404,.332,.644,.431,.247,.106,.495,.155,.763,.156,.134,.007,.269-.014,.396-.043,.127-.014,.254-.056,.375-.106s.233-.106,.339-.184c.113-.07,.212-.155,.304-.247,.375-.375,.594-.891,.587-1.421,0-.65-.332-1.294-.884-1.662Z" fill="#9aa51e"/>
      <path d="M737.033,80.088c.778,.778,2.044,.771,2.822-.007,.785-.785,.785-2.044,.007-2.822-.785-.785-2.043-.785-2.828,0-.778,.778-.785,2.044,0,2.828Z" fill="#9aa51e"/>
      <circle cx="752.611" cy="92.838" r="2" fill="#9aa51e"/>
      <circle cx="766.781" cy="107.008" r="2" fill="#9aa51e"/>
      <path d="M725.684,63.083c-.778-.778-2.036-.778-2.822,.007-.778,.778-.785,2.044-.007,2.822,.785,.785,2.058,.784,2.835,.007,.785-.785,.778-2.051-.007-2.835Z" fill="#9aa51e"/>
      <circle cx="681.766" cy="21.993" r="2" fill="#9aa51e"/>
      <circle cx="667.595" cy="7.822" r="2" fill="#9aa51e"/>
      <circle cx="780.951" cy="121.178" r="2" fill="#9aa51e"/>
      <circle cx="710.106" cy="50.333" r="2" fill="#9aa51e"/>
      <circle cx="695.936" cy="36.163" r="2" fill="#9aa51e"/>
      <circle cx="809.292" cy="149.519" r="2" fill="#9aa51e"/>
      <circle cx="851.803" cy="192.03" r="2" fill="#9aa51e"/>
      <circle cx="837.633" cy="177.86" r="2" fill="#9aa51e"/>
      <circle cx="823.463" cy="163.69" r="2" fill="#9aa51e"/>
      <circle cx="795.122" cy="135.349" r="2" fill="#9aa51e"/>
      <path d="M867.819,206.972c.049-.12,.085-.255,.114-.382,.028-.127,.042-.255,.035-.389,.007-.134-.007-.261-.036-.389-.028-.127-.064-.261-.114-.382-.049-.12-.105-.234-.183-.339-.368-.552-1.004-.891-1.669-.891-.127,0-.255,.015-.382,.042-.135,.021-.262,.064-.382,.114-.12,.05-.233,.106-.339,.184-.113,.07-.212,.155-.304,.247-.375,.375-.587,.884-.587,1.407,.007,.544,.212,1.047,.587,1.421s.877,.58,1.414,.58c.53,.007,1.039-.205,1.414-.58,.092-.092,.176-.191,.247-.304,.071-.114,.134-.219,.184-.339Z" fill="#9aa51e"/>
      <circle cx="633.435" cy="-.67" r="2" fill="#9aa51e"/>
      <circle cx="760.961" cy="126.857" r="2" fill="#9aa51e"/>
      <circle cx="775.132" cy="141.027" r="2" fill="#9aa51e"/>
      <circle cx="732.62" cy="98.516" r="2" fill="#9aa51e"/>
      <circle cx="746.791" cy="112.686" r="2" fill="#9aa51e"/>
      <circle cx="831.813" cy="197.709" r="2" fill="#9aa51e"/>
      <circle cx="789.302" cy="155.198" r="2" fill="#9aa51e"/>
      <circle cx="647.605" cy="13.5" r="2" fill="#9aa51e"/>
      <circle cx="803.472" cy="169.368" r="2" fill="#9aa51e"/>
      <circle cx="817.643" cy="183.538" r="2" fill="#9aa51e"/>
      <circle cx="704.287" cy="70.182" r="2" fill="#9aa51e"/>
      <circle cx="661.775" cy="27.671" r="2" fill="#9aa51e"/>
      <circle cx="675.946" cy="41.841" r="2" fill="#9aa51e"/>
      <circle cx="690.116" cy="56.012" r="2" fill="#9aa51e"/>
      <path d="M719.864,82.931c-.778-.778-2.043-.785-2.828,0-.778,.778-.778,2.051,0,2.828,.785,.785,2.058,.784,2.835,.007,.785-.785,.778-2.051-.007-2.835Z" fill="#9aa51e"/>
      <path d="M847.094,210.217c-.106-.077-.226-.141-.347-.191s-.241-.085-.367-.113c-.134-.021-.262-.035-.389-.035-.135-.007-.269,.014-.396,.043-.127,.014-.254,.056-.375,.106-.12,.05-.24,.113-.346,.191-.113,.071-.212,.155-.305,.248-.374,.374-.579,.876-.579,1.414-.008,.262,.042,.524,.141,.764,.106,.247,.247,.46,.438,.651,.375,.375,.885,.586,1.415,.579,.134,.007,.268-.013,.389-.035,.134-.021,.261-.063,.382-.113s.233-.106,.339-.184c.113-.07,.212-.155,.304-.247,.375-.375,.587-.884,.588-1.422,0-.65-.339-1.287-.891-1.655Z" fill="#9aa51e"/>
      <circle cx="799.194" cy="187.958" r="2" fill="#9aa51e"/>
      <circle cx="643.327" cy="32.09" r="2" fill="#9aa51e"/>
      <circle cx="657.498" cy="46.261" r="2" fill="#9aa51e"/>
      <circle cx="827.535" cy="216.299" r="2" fill="#9aa51e"/>
      <circle cx="813.365" cy="202.128" r="2" fill="#9aa51e"/>
      <circle cx="785.024" cy="173.787" r="2" fill="#9aa51e"/>
      <circle cx="714.172" cy="102.935" r="2" fill="#9aa51e"/>
      <circle cx="700.009" cy="88.772" r="2" fill="#9aa51e"/>
      <circle cx="728.343" cy="117.106" r="2" fill="#9aa51e"/>
      <circle cx="742.513" cy="131.276" r="2" fill="#9aa51e"/>
      <circle cx="614.986" cy="3.749" r="2" fill="#9aa51e"/>
      <circle cx="756.683" cy="145.446" r="2" fill="#9aa51e"/>
      <circle cx="671.668" cy="60.431" r="2" fill="#9aa51e"/>
      <circle cx="685.838" cy="74.601" r="2" fill="#9aa51e"/>
      <circle cx="770.854" cy="159.617" r="2" fill="#9aa51e"/>
      <circle cx="629.157" cy="17.92" r="2" fill="#9aa51e"/>
      <path d="M843.552,231.239c.049-.12,.084-.254,.113-.382,.028-.128,.042-.255,.035-.389,0-.127-.007-.262-.036-.389-.028-.127-.071-.254-.12-.375-.049-.12-.106-.233-.177-.346-.148-.22-.332-.404-.552-.552-.113-.071-.226-.128-.353-.184-.121-.049-.241-.085-.368-.113-.127-.029-.262-.035-.389-.036-.134-.007-.261,.007-.389,.035-.127,.029-.261,.064-.382,.113-.12,.05-.233,.12-.339,.184-.113,.07-.212,.155-.305,.248-.099,.099-.184,.197-.254,.311-.071,.099-.134,.219-.184,.339-.049,.12-.085,.241-.106,.375-.028,.128-.042,.254-.035,.389-.008,.531,.197,1.033,.579,1.415s.884,.587,1.415,.579c.134,.007,.261-.007,.389-.035,.134-.021,.254-.057,.375-.106,.12-.05,.24-.113,.339-.184,.113-.071,.212-.155,.311-.254,.093-.093,.177-.192,.248-.305,.064-.106,.134-.219,.184-.339Z" fill="#9aa51e"/>
      <circle cx="750.864" cy="165.295" r="2" fill="#9aa51e"/>
      <circle cx="765.035" cy="179.465" r="2" fill="#9aa51e"/>
      <circle cx="722.523" cy="136.954" r="2" fill="#9aa51e"/>
      <circle cx="736.694" cy="151.124" r="2" fill="#9aa51e"/>
      <circle cx="807.546" cy="221.976" r="2" fill="#9aa51e"/>
      <circle cx="779.205" cy="193.635" r="2" fill="#9aa51e"/>
      <circle cx="609.167" cy="23.597" r="2" fill="#9aa51e"/>
      <circle cx="793.375" cy="207.806" r="2" fill="#9aa51e"/>
      <circle cx="637.508" cy="51.938" r="2" fill="#9aa51e"/>
      <circle cx="651.678" cy="66.109" r="2" fill="#9aa51e"/>
      <circle cx="623.338" cy="37.768" r="2" fill="#9aa51e"/>
      <path d="M695.597,107.199c-.778-.778-2.037-.778-2.822,.007-.778,.778-.785,2.044-.007,2.822,.785,.785,2.057,.785,2.835,.007,.784-.784,.778-2.051-.007-2.835Z" fill="#9aa51e"/>
      <circle cx="708.353" cy="122.783" r="2" fill="#9aa51e"/>
      <circle cx="665.849" cy="80.279" r="2" fill="#9aa51e"/>
      <circle cx="594.997" cy="9.427" r="2" fill="#9aa51e"/>
      <circle cx="680.019" cy="94.45" r="2" fill="#9aa51e"/>
      <path d="M823.675,235.757c-.021-.134-.064-.261-.113-.381-.05-.12-.106-.233-.184-.34-.149-.219-.332-.403-.552-.552-.106-.077-.226-.141-.347-.191s-.24-.085-.374-.106c-.127-.028-.255-.042-.396-.042-.523,0-1.032,.212-1.407,.587-.092,.092-.176,.191-.248,.305-.078,.106-.141,.226-.191,.346-.049,.12-.084,.24-.113,.368-.021,.134-.035,.262-.035,.389,0,.269,.05,.53,.148,.771,.106,.247,.248,.459,.439,.65,.092,.092,.191,.177,.304,.248,.106,.078,.226,.142,.339,.184,.12,.049,.248,.091,.382,.113,.128,.028,.255,.042,.389,.036,.134,.007,.262-.007,.389-.035,.135-.021,.254-.056,.375-.106s.233-.12,.346-.191c.114-.071,.213-.156,.305-.248,.375-.375,.58-.891,.58-1.414,.007-.134-.007-.261-.036-.389Z" fill="#9aa51e"/>
      <path d="M577.963,12.432c-.778-.778-2.051-.778-2.836,.008-.778,.778-.77,2.043,.008,2.821,.785,.785,2.043,.785,2.821,.008,.785-.785,.792-2.051,.008-2.836Z" fill="#9aa51e"/>
      <path d="M563.792-1.738c-.778-.778-2.051-.778-2.836,.008-.778,.778-.77,2.043,.008,2.821,.785,.785,2.043,.785,2.821,.008,.785-.785,.792-2.051,.008-2.836Z" fill="#9aa51e"/>
      <path d="M677.155,111.625c-.785-.785-2.051-.778-2.836,.008-.778,.778-.777,2.036,.008,2.821,.778,.778,2.043,.785,2.821,.008,.785-.785,.785-2.058,.008-2.836Z" fill="#9aa51e"/>
      <path d="M762.171,196.64c-.778-.778-2.051-.778-2.836,.008-.778,.778-.77,2.043,.008,2.821,.785,.785,2.043,.785,2.821,.008,.785-.785,.793-2.051,.008-2.836Z" fill="#9aa51e"/>
      <path d="M733.83,168.3c-.778-.778-2.051-.778-2.836,.008-.778,.778-.77,2.043,.008,2.821,.785,.785,2.043,.785,2.821,.008,.785-.785,.793-2.051,.008-2.836Z" fill="#9aa51e"/>
      <path d="M705.489,139.959c-.778-.778-2.051-.778-2.836,.008-.778,.778-.77,2.043,.008,2.821,.785,.785,2.043,.785,2.821,.008,.785-.785,.792-2.051,.008-2.836Z" fill="#9aa51e"/>
      <path d="M719.66,154.129c-.778-.778-2.051-.778-2.836,.008-.778,.778-.77,2.043,.008,2.821,.785,.785,2.043,.785,2.821,.008,.785-.785,.792-2.051,.008-2.836Z" fill="#9aa51e"/>
      <path d="M592.133,26.603c-.785-.785-2.051-.778-2.836,.008-.778,.778-.778,2.036,.008,2.821s2.043,.785,2.821,.008c.785-.785,.792-2.051,.008-2.836Z" fill="#9aa51e"/>
      <path d="M776.341,210.811c-.778-.778-2.051-.778-2.836,.008-.778,.778-.77,2.043,.008,2.821,.785,.785,2.043,.785,2.821,.008,.785-.785,.792-2.051,.008-2.836Z" fill="#9aa51e"/>
      <path d="M790.512,224.981c-.785-.785-2.051-.778-2.836,.008-.778,.778-.777,2.036,.008,2.821,.778,.778,2.043,.785,2.821,.008,.785-.785,.785-2.058,.008-2.836Z" fill="#9aa51e"/>
      <path d="M748,182.47c-.778-.778-2.051-.778-2.836,.008-.778,.778-.77,2.043,.008,2.821,.785,.785,2.043,.785,2.821,.008,.785-.785,.793-2.051,.008-2.836Z" fill="#9aa51e"/>
      <path d="M620.474,54.944c-.785-.785-2.051-.778-2.836,.008-.778,.778-.778,2.036,.008,2.821,.778,.778,2.043,.785,2.821,.008,.785-.785,.785-2.058,.008-2.836Z" fill="#9aa51e"/>
      <path d="M634.644,69.114c-.785-.785-2.051-.778-2.836,.008-.778,.778-.778,2.036,.008,2.821,.778,.778,2.043,.785,2.821,.008,.785-.785,.785-2.058,.008-2.836Z" fill="#9aa51e"/>
      <path d="M606.303,40.773c-.778-.778-2.051-.778-2.836,.008-.778,.778-.77,2.043,.008,2.821s2.043,.785,2.821,.008c.785-.785,.785-2.058,.008-2.836Z" fill="#9aa51e"/>
      <path d="M662.985,97.455c-.785-.785-2.051-.778-2.836,.008-.778,.778-.777,2.036,.008,2.821,.778,.778,2.043,.785,2.821,.008,.785-.785,.785-2.058,.008-2.836Z" fill="#9aa51e"/>
      <path d="M691.326,125.795c-.785-.785-2.058-.784-2.843,0-.778,.778-.77,2.043,.015,2.828,.778,.778,2.043,.785,2.821,.008,.785-.785,.785-2.058,.008-2.836Z" fill="#9aa51e"/>
      <path d="M648.814,83.284c-.785-.785-2.051-.778-2.836,.008-.778,.778-.777,2.036,.008,2.821,.778,.778,2.043,.785,2.821,.008,.785-.785,.785-2.058,.008-2.836Z" fill="#9aa51e"/>
      <path d="M804.682,239.152c-.785-.785-2.051-.778-2.836,.008-.778,.778-.777,2.036,.008,2.821,.778,.778,2.043,.785,2.821,.008,.785-.785,.785-2.058,.008-2.836Z" fill="#9aa51e"/>
      <path d="M819.284,255.507c.049-.12,.085-.255,.113-.382,.028-.128,.042-.255,.036-.389,0-.127-.014-.254-.036-.389-.029-.127-.064-.247-.12-.375-.049-.12-.106-.233-.176-.346-.149-.219-.332-.403-.552-.552-.113-.07-.226-.127-.354-.184-.12-.05-.241-.085-.367-.113-.135-.021-.262-.035-.396-.042-.128,0-.255,.015-.383,.043-.134,.021-.261,.064-.382,.113-.12,.05-.24,.113-.339,.184-.113,.07-.212,.155-.304,.247-.099,.099-.184,.198-.255,.311-.071,.099-.134,.219-.184,.339-.049,.12-.085,.24-.113,.368-.021,.135-.036,.261-.042,.396,0,.537,.212,1.047,.586,1.422s.885,.586,1.415,.579c.141,0,.268-.014,.396-.042,.134-.022,.254-.057,.375-.106,.12-.05,.24-.113,.339-.184,.113-.071,.212-.155,.311-.255,.092-.092,.176-.191,.247-.304,.064-.106,.134-.219,.184-.339Z" fill="#9aa51e"/>
    </g>
  </g>
</svg>